<svg width="74" height="75" viewBox="0 0 74 75" fill="none" xmlns="http://www.w3.org/2000/svg">
<rect x="5.5" y="6" width="63" height="63" rx="31.5" fill="#FDEDE1"/>
<path d="M24.5337 49.4642C24.5337 49.7428 24.7662 49.9687 25.0531 49.9687L48.9453 49.9688C49.2321 49.9688 49.4647 49.7429 49.4647 49.4643V48.8617C49.4766 48.6801 49.5009 47.7739 48.9036 46.7721C48.5269 46.1404 47.9802 45.5946 47.2787 45.1501C46.4301 44.6123 45.3505 44.2226 44.0446 43.988C44.035 43.9868 43.0668 43.8584 42.0748 43.6051C40.3475 43.1639 40.1965 42.7734 40.1955 42.7696C40.1854 42.731 40.1707 42.694 40.1518 42.6591C40.1377 42.5863 40.1028 42.3121 40.1696 41.5777C40.339 39.7122 41.3397 38.6097 42.1437 37.7239C42.3973 37.4445 42.6367 37.1807 42.8212 36.9219C43.6168 35.8056 43.6906 34.5363 43.6939 34.4576C43.6939 34.2982 43.6756 34.1672 43.6365 34.0457C43.5584 33.8026 43.4114 33.6512 43.3041 33.5406C43.2771 33.5128 43.2509 33.4856 43.23 33.4614C43.222 33.4521 43.2009 33.4276 43.2201 33.302C43.2907 32.8394 43.3331 32.4521 43.3535 32.083C43.3897 31.4256 43.418 30.4424 43.2484 29.4855C43.2275 29.3221 43.1915 29.1495 43.1355 28.9439C42.9564 28.285 42.6686 27.7217 42.2686 27.2568C42.1999 27.1819 40.5277 25.4203 35.6736 25.0588C35.0024 25.0088 34.3388 25.0358 33.6857 25.0691C33.5282 25.0769 33.3127 25.0876 33.1109 25.1399C32.6098 25.2697 32.476 25.5874 32.4409 25.7652C32.3827 26.0596 32.485 26.2887 32.5527 26.4403C32.5625 26.4623 32.5746 26.4895 32.5534 26.5603C32.4408 26.7348 32.2635 26.8921 32.0828 27.0412C32.0305 27.0856 30.8133 28.1351 30.7464 29.5062C30.5659 30.5489 30.5796 32.1735 30.793 33.2963C30.8054 33.3583 30.8237 33.4501 30.794 33.5122C30.5645 33.7178 30.3043 33.9509 30.305 34.4828C30.3078 34.5363 30.3816 35.8056 31.1772 36.9219C31.3615 37.1805 31.6008 37.4442 31.8541 37.7233C32.6582 38.6091 33.6594 39.7122 33.8289 41.5776C33.8955 42.3121 33.8606 42.5863 33.8465 42.659C33.8277 42.6939 33.813 42.731 33.8029 42.7696C33.8018 42.7734 33.6514 43.1626 31.9319 43.6029C30.9399 43.8569 29.9634 43.9867 29.9342 43.9909C28.6652 44.2051 27.5923 44.5851 26.7451 45.12C26.046 45.5616 25.4983 46.1084 25.1172 46.7451C24.5084 47.7624 24.5249 48.6889 24.5337 48.858V49.4642Z" stroke="#F78633" strokeWidth="1.96875" strokeLinejoin="round"/>
<rect x="5.5" y="6" width="63" height="63" rx="31.5" stroke="#FEF6F0" strokeWidth="10.5"/>
</svg>
