<svg width="183" height="54" viewBox="0 0 183 54" fill="none" xmlns="http://www.w3.org/2000/svg">
<rect x="1.05" y="0.675" width="180.9" height="52.65" rx="6.075" fill="black"/>
<path d="M92.3582 29.3641C89.183 29.3641 86.595 31.7792 86.595 35.1056C86.595 38.4118 89.183 40.8472 92.3582 40.8472C95.5347 40.8472 98.1227 38.4118 98.1227 35.1056C98.1213 31.7792 95.5334 29.3641 92.3582 29.3641ZM92.3582 38.5873C90.618 38.5873 89.1182 37.1522 89.1182 35.107C89.1182 33.0401 90.6194 31.6267 92.3582 31.6267C94.0983 31.6267 95.5982 33.0401 95.5982 35.107C95.5982 37.1509 94.0983 38.5873 92.3582 38.5873ZM79.7842 29.3641C76.609 29.3641 74.0211 31.7792 74.0211 35.1056C74.0211 38.4118 76.609 40.8472 79.7842 40.8472C82.9608 40.8472 85.5488 38.4118 85.5488 35.1056C85.5488 31.7792 82.9608 29.3641 79.7842 29.3641ZM79.7842 38.5873C78.0441 38.5873 76.5442 37.1522 76.5442 35.107C76.5442 33.0401 78.0454 31.6267 79.7842 31.6267C81.5244 31.6267 83.0243 33.0401 83.0243 35.107C83.0256 37.1509 81.5244 38.5873 79.7842 38.5873ZM64.8289 31.1272V33.5626H70.6583C70.4841 34.9328 70.0278 35.9332 69.3312 36.6284C68.4834 37.4762 67.1564 38.4118 64.8289 38.4118C61.2406 38.4118 58.4353 35.5187 58.4353 31.9304C58.4353 28.3421 61.2406 25.4491 64.8289 25.4491C66.7648 25.4491 68.1783 26.2105 69.2219 27.1892L70.9404 25.4707C69.4824 24.0788 67.5478 23.0137 64.8289 23.0137C59.9136 23.0137 55.7812 27.0151 55.7812 31.9304C55.7812 36.8458 59.9136 40.8472 64.8289 40.8472C67.4817 40.8472 69.4838 39.9764 71.0484 38.3456C72.6576 36.7364 73.1585 34.4738 73.1585 32.6473C73.1585 32.083 73.1153 31.5605 73.0275 31.1258H64.8289V31.1272ZM125.995 33.0185C125.517 31.736 124.059 29.3641 121.079 29.3641C118.122 29.3641 115.663 31.6915 115.663 35.1056C115.663 38.324 118.1 40.8472 121.362 40.8472C123.993 40.8472 125.516 39.238 126.147 38.3024L124.19 36.997C123.538 37.9541 122.645 38.5846 121.362 38.5846C120.079 38.5846 119.165 37.9973 118.578 36.8444L126.255 33.6692L125.995 33.0185ZM118.165 34.9328C118.1 32.7134 119.883 31.5835 121.167 31.5835C122.167 31.5835 123.015 32.0843 123.299 32.8012L118.165 34.9328ZM111.924 40.5002H114.446V23.6239H111.924V40.5002ZM107.79 30.6479H107.704C107.138 29.9729 106.05 29.3641 104.681 29.3641C101.81 29.3641 99.1784 31.8872 99.1784 35.1286C99.1784 38.347 101.81 40.8485 104.681 40.8485C106.051 40.8485 107.138 40.2397 107.704 39.5444H107.79V40.3706C107.79 42.5671 106.615 43.7416 104.724 43.7416C103.18 43.7416 102.223 42.6332 101.831 41.6977L99.6347 42.6116C100.265 44.1331 101.939 46.0042 104.724 46.0042C107.682 46.0042 110.184 44.264 110.184 40.0223V29.7137H107.791V30.6479H107.79ZM104.898 38.5873C103.158 38.5873 101.701 37.1293 101.701 35.1286C101.701 33.1049 103.158 31.6267 104.898 31.6267C106.616 31.6267 107.964 33.1049 107.964 35.1286C107.964 37.1293 106.616 38.5873 104.898 38.5873ZM137.813 23.6239H131.777V40.5002H134.295V34.1066H137.811C140.603 34.1066 143.349 32.0857 143.349 28.8659C143.349 25.6462 140.604 23.6239 137.813 23.6239ZM137.877 31.7576H134.295V25.9729H137.877C139.761 25.9729 140.83 27.5321 140.83 28.8659C140.83 30.1727 139.761 31.7576 137.877 31.7576ZM153.446 29.3344C151.622 29.3344 149.733 30.1376 148.951 31.9183L151.187 32.8511C151.665 31.9183 152.556 31.6132 153.489 31.6132C154.792 31.6132 156.116 32.3948 156.138 33.784V33.9581C155.681 33.6976 154.704 33.3074 153.51 33.3074C151.101 33.3074 148.646 34.6318 148.646 37.1063C148.646 39.3649 150.623 40.8188 152.837 40.8188C154.53 40.8188 155.464 40.0588 156.05 39.1678H156.136V40.4705H158.569V34C158.57 31.0057 156.332 29.3344 153.446 29.3344ZM153.141 38.5832C152.317 38.5832 151.165 38.1701 151.165 37.1495C151.165 35.8468 152.599 35.3473 153.837 35.3473C154.943 35.3473 155.465 35.5862 156.138 35.9116C155.942 37.4762 154.596 38.5832 153.141 38.5832ZM167.428 29.7029L164.54 37.0199H164.454L161.457 29.7029H158.743L163.237 39.9292L160.675 45.6181H163.302L170.229 29.7029H167.428ZM144.739 40.5002H147.257V23.6239H144.739V40.5002Z" fill="white"/>
<path d="M64.3883 13.8279C64.3883 14.9592 64.0535 15.8597 63.3826 16.532C62.6212 17.3312 61.6276 17.7308 60.4072 17.7308C59.2381 17.7308 58.2431 17.3258 57.4264 16.5158C56.6083 15.7044 56.1992 14.7 56.1992 13.5012C56.1992 12.3011 56.6083 11.2967 57.4264 10.4867C58.2431 9.67534 59.2381 9.27034 60.4072 9.27034C60.9877 9.27034 61.5425 9.38374 62.069 9.60919C62.5969 9.83599 63.0194 10.137 63.3353 10.5137L62.6239 11.2265C62.0879 10.5852 61.3495 10.2653 60.4058 10.2653C59.5526 10.2653 58.8155 10.565 58.1932 11.1644C57.5708 11.7638 57.2603 12.5427 57.2603 13.4999C57.2603 14.457 57.5708 15.236 58.1932 15.8354C58.8155 16.4348 59.5526 16.7345 60.4058 16.7345C61.3103 16.7345 62.065 16.4334 62.6684 15.83C63.0599 15.4371 63.2867 14.8904 63.3475 14.1897H60.4058V13.2164H64.3303C64.3708 13.4283 64.3883 13.6322 64.3883 13.8279Z" fill="white"/>
<path d="M70.6119 10.4449H66.9237V13.0126H70.2501V13.986H66.9237V16.5537H70.6119V17.55H65.8829V9.44996H70.6119V10.4449Z" fill="white"/>
<path d="M75.0006 17.55H73.9598V10.4449H71.6972V9.44996H77.2632V10.4449H75.0006V17.55Z" fill="white"/>
<path d="M81.2902 17.55V9.44996H82.3311V17.55H81.2902Z" fill="white"/>
<path d="M86.947 17.55H85.9061V10.4449H83.6435V9.44996H89.2096V10.4449H86.947V17.55Z" fill="white"/>
<path d="M99.746 16.5037C98.9495 17.3218 97.9599 17.7309 96.776 17.7309C95.592 17.7309 94.6025 17.3218 93.8074 16.5037C93.0109 15.6856 92.6139 14.6839 92.6139 13.5C92.6139 12.316 93.0109 11.3143 93.8074 10.4962C94.6025 9.6781 95.592 9.2677 96.776 9.2677C97.9532 9.2677 98.9414 9.67945 99.7406 10.5016C100.54 11.3237 100.939 12.3228 100.939 13.5C100.939 14.6839 100.541 15.6856 99.746 16.5037ZM94.5755 15.8247C95.1749 16.4322 95.9079 16.7346 96.776 16.7346C97.644 16.7346 98.3785 16.4308 98.9765 15.8247C99.5759 15.2172 99.877 14.4423 99.877 13.5C99.877 12.5577 99.5759 11.7828 98.9765 11.1753C98.3785 10.5678 97.644 10.2654 96.776 10.2654C95.9079 10.2654 95.1749 10.5691 94.5755 11.1753C93.9775 11.7828 93.6764 12.5577 93.6764 13.5C93.6764 14.4423 93.9775 15.2172 94.5755 15.8247Z" fill="white"/>
<path d="M102.4 17.55V9.44996H103.666L107.603 15.7504H107.648L107.603 14.1898V9.44996H108.644V17.55H107.557L103.438 10.9431H103.394L103.438 12.5037V17.55H102.4Z" fill="white"/>
<path d="M64.3883 13.8279C64.3883 14.9592 64.0535 15.8597 63.3826 16.532C62.6212 17.3312 61.6276 17.7308 60.4072 17.7308C59.2381 17.7308 58.2431 17.3258 57.4264 16.5158C56.6083 15.7044 56.1992 14.7 56.1992 13.5012C56.1992 12.3011 56.6083 11.2967 57.4264 10.4867C58.2431 9.67534 59.2381 9.27034 60.4072 9.27034C60.9877 9.27034 61.5425 9.38374 62.069 9.60919C62.5969 9.83599 63.0194 10.137 63.3353 10.5137L62.6239 11.2265C62.0879 10.5852 61.3495 10.2653 60.4058 10.2653C59.5526 10.2653 58.8155 10.565 58.1932 11.1644C57.5708 11.7638 57.2603 12.5427 57.2603 13.4999C57.2603 14.457 57.5708 15.236 58.1932 15.8354C58.8155 16.4348 59.5526 16.7345 60.4058 16.7345C61.3103 16.7345 62.065 16.4334 62.6684 15.83C63.0599 15.4371 63.2867 14.8904 63.3475 14.1897H60.4058V13.2164H64.3303C64.3708 13.4283 64.3883 13.6322 64.3883 13.8279Z" stroke="white" strokeWidth="0.27" stroke-miterlimit="10"/>
<path d="M70.6119 10.4449H66.9237V13.0126H70.2501V13.986H66.9237V16.5537H70.6119V17.55H65.8829V9.44996H70.6119V10.4449Z" stroke="white" strokeWidth="0.27" stroke-miterlimit="10"/>
<path d="M75.0006 17.55H73.9598V10.4449H71.6972V9.44996H77.2632V10.4449H75.0006V17.55Z" stroke="white" strokeWidth="0.27" stroke-miterlimit="10"/>
<path d="M81.2902 17.55V9.44996H82.3311V17.55H81.2902Z" stroke="white" strokeWidth="0.27" stroke-miterlimit="10"/>
<path d="M86.947 17.55H85.9061V10.4449H83.6435V9.44996H89.2096V10.4449H86.947V17.55Z" stroke="white" strokeWidth="0.27" stroke-miterlimit="10"/>
<path d="M99.746 16.5037C98.9495 17.3218 97.9599 17.7309 96.776 17.7309C95.592 17.7309 94.6025 17.3218 93.8074 16.5037C93.0109 15.6856 92.6139 14.6839 92.6139 13.5C92.6139 12.316 93.0109 11.3143 93.8074 10.4962C94.6025 9.6781 95.592 9.2677 96.776 9.2677C97.9532 9.2677 98.9414 9.67945 99.7406 10.5016C100.54 11.3237 100.939 12.3228 100.939 13.5C100.939 14.6839 100.541 15.6856 99.746 16.5037ZM94.5755 15.8247C95.1749 16.4322 95.9079 16.7346 96.776 16.7346C97.644 16.7346 98.3785 16.4308 98.9765 15.8247C99.5759 15.2172 99.877 14.4423 99.877 13.5C99.877 12.5577 99.5759 11.7828 98.9765 11.1753C98.3785 10.5678 97.644 10.2654 96.776 10.2654C95.9079 10.2654 95.1749 10.5691 94.5755 11.1753C93.9775 11.7828 93.6764 12.5577 93.6764 13.5C93.6764 14.4423 93.9775 15.2172 94.5755 15.8247Z" stroke="white" strokeWidth="0.27" stroke-miterlimit="10"/>
<path d="M102.4 17.55V9.44996H103.666L107.603 15.7504H107.648L107.603 14.1898V9.44996H108.644V17.55H107.557L103.438 10.9431H103.394L103.438 12.5037V17.55H102.4Z" stroke="white" strokeWidth="0.27" stroke-miterlimit="10"/>
<g filter="url(#filter0_ii_7098_7359)">
<path d="M14.4629 10.1763C14.0701 10.5921 13.8379 11.2374 13.8379 12.0731V41.9297C13.8379 42.7667 14.0701 43.4106 14.4629 43.8264L14.5628 43.9236L31.288 27.1985V27.0014V26.8043L14.5628 10.0778L14.4629 10.1763Z" fill="url(#paint0_linear_7098_7359)"/>
<path d="M36.8622 32.7753L31.2881 27.1985V27.0014V26.8043L36.8636 21.2288L36.9891 21.3003L43.5947 25.0533C45.4806 26.1252 45.4806 27.8789 43.5947 28.9521L36.9891 32.7051L36.8622 32.7753Z" fill="url(#paint1_linear_7098_7359)"/>
<g filter="url(#filter1_i_7098_7359)">
<path d="M36.989 32.7037L31.2866 27.0013L14.4629 43.8264C15.0839 44.4852 16.1112 44.5662 17.2682 43.9101L36.989 32.7037Z" fill="url(#paint2_linear_7098_7359)"/>
</g>
<path d="M36.989 21.2988L17.2682 10.0938C16.1112 9.43639 15.0839 9.51874 14.4629 10.1775L31.2879 27.0026L36.989 21.2988Z" fill="url(#paint3_linear_7098_7359)"/>
</g>
<rect x="1.05" y="0.675" width="180.9" height="52.65" rx="6.075" stroke="#A6A6A6" strokeWidth="1.35"/>
<defs>
<filter id="filter0_ii_7098_7359" x="13.8379" y="9.64014" width="31.1709" height="34.7231" filterUnits="userSpaceOnUse" color-interpolation-filters="sRGB">
<feFlood flood-opacity="0" result="BackgroundImageFix"/>
<feBlend mode="normal" in="SourceGraphic" in2="BackgroundImageFix" result="shape"/>
<feColorMatrix in="SourceAlpha" type="matrix" values="0 0 0 0 0 0 0 0 0 0 0 0 0 0 0 0 0 0 127 0" result="hardAlpha"/>
<feOffset dy="-0.2025"/>
<feComposite in2="hardAlpha" operator="arithmetic" k2="-1" k3="1"/>
<feColorMatrix type="matrix" values="0 0 0 0 0 0 0 0 0 0 0 0 0 0 0 0 0 0 0.12 0"/>
<feBlend mode="normal" in2="shape" result="effect1_innerShadow_7098_7359"/>
<feColorMatrix in="SourceAlpha" type="matrix" values="0 0 0 0 0 0 0 0 0 0 0 0 0 0 0 0 0 0 127 0" result="hardAlpha"/>
<feOffset dy="0.2025"/>
<feComposite in2="hardAlpha" operator="arithmetic" k2="-1" k3="1"/>
<feColorMatrix type="matrix" values="0 0 0 0 1 0 0 0 0 1 0 0 0 0 1 0 0 0 0.25 0"/>
<feBlend mode="normal" in2="effect1_innerShadow_7098_7359" result="effect2_innerShadow_7098_7359"/>
</filter>
<filter id="filter1_i_7098_7359" x="14.4629" y="27.0013" width="22.5264" height="17.3619" filterUnits="userSpaceOnUse" color-interpolation-filters="sRGB">
<feFlood flood-opacity="0" result="BackgroundImageFix"/>
<feBlend mode="normal" in="SourceGraphic" in2="BackgroundImageFix" result="shape"/>
<feColorMatrix in="SourceAlpha" type="matrix" values="0 0 0 0 0 0 0 0 0 0 0 0 0 0 0 0 0 0 127 0" result="hardAlpha"/>
<feOffset dy="-0.2025"/>
<feComposite in2="hardAlpha" operator="arithmetic" k2="-1" k3="1"/>
<feColorMatrix type="matrix" values="0 0 0 0 0 0 0 0 0 0 0 0 0 0 0 0 0 0 0.08 0"/>
<feBlend mode="normal" in2="shape" result="effect1_innerShadow_7098_7359"/>
</filter>
<linearGradient id="paint0_linear_7098_7359" x1="29.8054" y1="11.7572" x2="7.14972" y2="34.4129" gradientUnits="userSpaceOnUse">
<stop stop-color="#00A0FF"/>
<stop offset="0.0066" stop-color="#00A1FF"/>
<stop offset="0.2601" stop-color="#00BEFF"/>
<stop offset="0.5122" stop-color="#00D2FF"/>
<stop offset="0.7604" stop-color="#00DFFF"/>
<stop offset="1" stop-color="#00E3FF"/>
</linearGradient>
<linearGradient id="paint1_linear_7098_7359" x1="46.0497" y1="27.0014" x2="13.3852" y2="27.0014" gradientUnits="userSpaceOnUse">
<stop stop-color="#FFE000"/>
<stop offset="0.4087" stop-color="#FFBD00"/>
<stop offset="0.7754" stop-color="#FFA500"/>
<stop offset="1" stop-color="#FF9C00"/>
</linearGradient>
<linearGradient id="paint2_linear_7098_7359" x1="33.8922" y1="30.0981" x2="3.16826" y2="60.8221" gradientUnits="userSpaceOnUse">
<stop stop-color="#FF3A44"/>
<stop offset="1" stop-color="#C31162"/>
</linearGradient>
<linearGradient id="paint3_linear_7098_7359" x1="10.2258" y1="0.238569" x2="23.9449" y2="13.9577" gradientUnits="userSpaceOnUse">
<stop stop-color="#32A071"/>
<stop offset="0.0685" stop-color="#2DA771"/>
<stop offset="0.4762" stop-color="#15CF74"/>
<stop offset="0.8009" stop-color="#06E775"/>
<stop offset="1" stop-color="#00F076"/>
</linearGradient>
</defs>
</svg>
