<svg width="74" height="75" viewBox="0 0 74 75" fill="none" xmlns="http://www.w3.org/2000/svg">
<rect x="5.5" y="6" width="63" height="63" rx="31.5" fill="#FDEDE1"/>
<path fillRule="evenodd" clipRule="evenodd" d="M37.7396 26.8271C37.6271 26.807 37.4964 26.8031 37.0004 26.8031C36.5043 26.8031 36.3737 26.807 36.2612 26.8271C36.1636 26.8445 36.0515 26.8796 35.6287 27.0519C35.5687 27.0764 35.5045 27.1027 35.4357 27.1308C34.5605 27.4894 32.931 28.1569 29.2726 29.3948C28.4193 29.6835 27.8946 30.312 27.8248 31.0371C27.6876 32.4618 27.616 34.1882 27.616 34.875C27.616 37.402 29.2377 40.7666 31.4048 43.5889C32.4694 44.9754 33.6167 46.1657 34.6677 46.9972C35.7758 47.8739 36.5833 48.1968 37.0004 48.1968C37.4175 48.1968 38.2249 47.8739 39.3331 46.9972C40.3841 46.1657 41.5314 44.9754 42.596 43.5889C44.7631 40.7666 46.3848 37.402 46.3848 34.875C46.3848 34.1882 46.3132 32.4618 46.176 31.0371C46.1061 30.312 45.5815 29.6835 44.7281 29.3948C41.0698 28.1569 39.4402 27.4894 38.5651 27.1308C38.4963 27.1027 38.4321 27.0764 38.372 27.0519C37.9493 26.8796 37.8372 26.8445 37.7396 26.8271ZM39.4065 25.0644C40.2584 25.4135 41.8458 26.064 45.4433 27.2812C46.9594 27.7942 48.227 29.0585 48.3969 30.8233C48.5403 32.3119 48.616 34.1099 48.616 34.875C48.616 38.1469 46.6283 42.0011 44.3657 44.9478C43.2155 46.4457 41.9429 47.7775 40.7175 48.747C39.5493 49.6712 38.2239 50.4281 37.0004 50.4281C35.7769 50.4281 34.4515 49.6712 33.2833 48.747C32.0579 47.7775 30.7853 46.4457 29.6351 44.9478C27.3725 42.0011 25.3848 38.1469 25.3848 34.875C25.3848 34.1099 25.4605 32.3119 25.6038 30.8233C25.7738 29.0585 27.0414 27.7942 28.5575 27.2812C32.155 26.064 33.7424 25.4135 34.5943 25.0644C34.663 25.0362 34.7269 25.01 34.7867 24.9856C35.1769 24.8266 35.5027 24.696 35.869 24.6306C36.2006 24.5714 36.5391 24.5716 36.9297 24.5718C36.9531 24.5718 36.9766 24.5718 37.0004 24.5718C37.0241 24.5718 37.0477 24.5718 37.0711 24.5718C37.4617 24.5716 37.8002 24.5714 38.1318 24.6306C38.4981 24.696 38.8239 24.8266 39.2141 24.9856C39.2739 25.01 39.3378 25.0362 39.4065 25.0644Z" fill="#F78E41"/>
<rect x="5.5" y="6" width="63" height="63" rx="31.5" stroke="#FEF6F0" strokeWidth="10.5"/>
</svg>
