<svg width="82" height="82" viewBox="0 0 82 82" fill="none" xmlns="http://www.w3.org/2000/svg">
<path d="M7.84033 54.4004C21.6459 61.9922 27.1946 74.356 33.8457 78.0141C40.4991 81.6722 56.5734 85.5285 73.4016 54.9243C90.2298 24.32 73.905 9.49399 66.5865 5.46916C32.3242 -13.3681 -16.6093 40.9569 7.84033 54.4004Z" fill="#FDEDE1"/>
<path d="M66.625 19.9306V50.6806C66.625 51.8888 66.145 53.0475 65.2907 53.9018C64.4364 54.7561 63.2776 55.2361 62.0694 55.2361H35.3056L24.4861 66.625V55.2361H19.9306C18.7223 55.2361 17.5636 54.7561 16.7093 53.9018C15.855 53.0475 15.375 51.8888 15.375 50.6806V19.9306C15.375 18.7223 15.855 17.5636 16.7093 16.7093C17.5636 15.855 18.7223 15.375 19.9306 15.375H62.0694C63.2776 15.375 64.4364 15.855 65.2907 16.7093C66.145 17.5636 66.625 18.7223 66.625 19.9306Z" fill="#F78633"/>
<path d="M29.6111 61.2312V55.2361H25.0556C23.8473 55.2361 22.6886 54.7561 21.8343 53.9018C20.98 53.0475 20.5 51.8888 20.5 50.6806V19.9306C20.5 18.7223 20.98 17.5636 21.8343 16.7093C22.6886 15.855 23.8473 15.375 25.0556 15.375H19.9306C18.7223 15.375 17.5636 15.855 16.7093 16.7093C15.855 17.5636 15.375 18.7223 15.375 19.9306V50.6806C15.375 51.8888 15.855 53.0475 16.7093 53.9018C17.5636 54.7561 18.7223 55.2361 19.9306 55.2361H24.4861V66.625L29.6111 61.2312Z" fill="#FDEDE1"/>
<path d="M11.3888 68.5363C9.50511 68.5363 7.97217 67.0034 7.97217 65.1196C7.97217 63.2359 9.50511 61.703 11.3888 61.703C13.2726 61.703 14.8055 63.2359 14.8055 65.1196C14.8055 67.0034 13.2726 68.5363 11.3888 68.5363ZM11.3888 63.9807C11.0868 63.9807 10.7971 64.1007 10.5835 64.3143C10.3699 64.5279 10.2499 64.8176 10.2499 65.1196C10.2499 65.4217 10.3699 65.7114 10.5835 65.9249C10.7971 66.1385 11.0868 66.2585 11.3888 66.2585C11.6909 66.2585 11.9806 66.1385 12.1942 65.9249C12.4077 65.7114 12.5277 65.4217 12.5277 65.1196C12.5277 64.8176 12.4077 64.5279 12.1942 64.3143C11.9806 64.1007 11.6909 63.9807 11.3888 63.9807ZM61.1196 62.8783L62.7299 61.2656L65.9507 64.4864L64.3403 66.0991L61.1196 62.8783ZM70.381 72.1375L71.9914 70.5271L75.2122 73.7478L73.6018 75.3605L70.381 72.1375ZM60.7164 73.7478L63.9394 70.5248L65.5498 72.1352L62.3268 75.3582L60.7164 73.7478ZM69.9778 64.4841L73.1986 61.2656L74.809 62.876L71.5882 66.0968L69.9778 64.4841Z" fill="#A4AFC1"/>
<path d="M24.4859 68.3332C24.2614 68.3338 24.039 68.29 23.8315 68.2044C23.624 68.1187 23.4354 67.9929 23.2766 67.8341C23.1179 67.6754 22.9921 67.4868 22.9064 67.2793C22.8208 67.0718 22.777 66.8493 22.7776 66.6248V56.9443H19.9304C18.2695 56.9431 16.6769 56.2827 15.5025 55.1083C14.328 53.9338 13.6677 52.3413 13.6665 50.6804V19.9304C13.6677 18.2695 14.328 16.6769 15.5025 15.5025C16.6769 14.328 18.2695 13.6677 19.9304 13.6665H62.0693C63.7302 13.6677 65.3227 14.328 66.4972 15.5025C67.6716 16.6769 68.332 18.2695 68.3332 19.9304V50.6804C68.332 52.3413 67.6716 53.9338 66.4972 55.1083C65.3227 56.2827 63.7302 56.9431 62.0693 56.9443H36.0388L25.7251 67.8024C25.565 67.9699 25.3727 68.1032 25.1597 68.1945C24.9468 68.2857 24.7176 68.3328 24.4859 68.3332ZM19.9304 17.0832C18.361 17.0832 17.0832 18.361 17.0832 19.9304V50.6804C17.0832 52.2498 18.361 53.5276 19.9304 53.5276H24.4859C24.939 53.5276 25.3735 53.7076 25.6939 54.028C26.0143 54.3483 26.1943 54.7829 26.1943 55.2359V62.3472L34.0663 54.0606C34.226 53.8927 34.4183 53.7591 34.6313 53.6679C34.8443 53.5766 35.0737 53.5297 35.3054 53.5299H62.0693C63.6387 53.5299 64.9165 52.2521 64.9165 50.6827V19.9304C64.9165 18.361 63.6387 17.0832 62.0693 17.0832H19.9304Z" fill="#1D2939"/>
<path d="M41.0001 43.2779C36.6039 43.2779 33.0278 39.7018 33.0278 35.3057C33.0278 30.9096 36.6039 27.3335 41.0001 27.3335C45.3962 27.3335 48.9723 30.9096 48.9723 35.3057C48.9723 39.7018 45.3962 43.2779 41.0001 43.2779ZM41.0001 30.7502C38.4877 30.7502 36.4445 32.7933 36.4445 35.3057C36.4445 37.8181 38.4877 39.8613 41.0001 39.8613C43.5124 39.8613 45.5556 37.8181 45.5556 35.3057C45.5556 32.7933 43.5124 30.7502 41.0001 30.7502Z" fill="#1D2939"/>
<path d="M41.0001 50.111C38.7974 50.1149 36.6217 49.6256 34.6328 48.6788C32.6439 47.7321 30.8923 46.352 29.5064 44.6398C26.6797 41.1639 25.5932 36.6061 26.5225 32.1394C27.691 26.5406 32.2352 21.9964 37.8317 20.8302C42.3053 19.9031 46.8585 20.9874 50.3344 23.8141C53.8103 26.6408 55.8057 30.8319 55.8057 35.3078V38.155C55.8057 40.9817 53.5074 43.28 50.6807 43.28C47.8539 43.28 45.5557 40.9794 45.5557 38.1527V29.0416H48.9723V38.1527C48.9723 38.6058 49.1523 39.0403 49.4727 39.3607C49.7931 39.681 50.2276 39.861 50.6807 39.861C51.1337 39.861 51.5683 39.681 51.8886 39.3607C52.209 39.0403 52.389 38.6058 52.389 38.1527V35.3055C52.389 31.8615 50.8538 28.6384 48.1797 26.4631C45.5055 24.2879 41.9887 23.4542 38.531 24.174C34.2442 25.0669 30.7638 28.5473 29.8709 32.8364C29.1511 36.2918 29.9848 39.8109 32.16 42.485C34.3353 45.1591 37.5561 46.6944 41.0001 46.6944V50.111Z" fill="#1D2939"/>
</svg>
