<svg width="74" height="75" viewBox="0 0 74 75" fill="none" xmlns="http://www.w3.org/2000/svg">
<rect x="5.5" y="6" width="63" height="63" rx="31.5" fill="#FDEDE1"/>
<path fillRule="evenodd" clipRule="evenodd" d="M44.193 25.6669C44.0648 25.5388 43.8571 25.5388 43.7289 25.6669L37.2324 32.1635C37.1043 32.2916 37.1043 32.4993 37.2324 32.6275L41.8728 37.2679C42.0009 37.396 42.2087 37.396 42.3368 37.2679L48.8334 30.7713C48.9615 30.6432 48.9615 30.4354 48.8334 30.3073L44.193 25.6669ZM42.3368 24.2748C43.2338 23.3778 44.6881 23.3778 45.5851 24.2748L50.2255 28.9152C51.1225 29.8122 51.1225 31.2665 50.2255 32.1635L43.7289 38.66C42.832 39.557 41.3777 39.557 40.4807 38.66L35.8403 34.0196C34.9433 33.1226 34.9433 31.6683 35.8403 30.7713L42.3368 24.2748Z" fill="#F78633"/>
<path fillRule="evenodd" clipRule="evenodd" d="M32.128 37.7319C31.9998 37.6038 31.7921 37.6038 31.6639 37.7319L25.1674 44.2285C25.0393 44.3566 25.0393 44.5644 25.1674 44.6925L29.8078 49.3329C29.9359 49.461 30.1437 49.461 30.2718 49.3329L36.7684 42.8363C36.8965 42.7082 36.8965 42.5004 36.7684 42.3723L32.128 37.7319ZM30.2718 36.3398C31.1688 35.4428 32.6231 35.4428 33.5201 36.3398L38.1605 40.9802C39.0575 41.8772 39.0575 43.3315 38.1605 44.2285L31.6639 50.725C30.767 51.622 29.3127 51.622 28.4157 50.725L23.7753 46.0846C22.8783 45.1876 22.8783 43.7333 23.7753 42.8363L30.2718 36.3398Z" fill="#F78633"/>
<path fillRule="evenodd" clipRule="evenodd" d="M42.3368 32.1635C42.7212 32.5479 42.7212 33.1712 42.3368 33.5556L33.056 42.8364C32.6716 43.2208 32.0483 43.2208 31.6639 42.8363C31.2795 42.4519 31.2795 41.8287 31.6639 41.4442L40.9447 32.1635C41.3291 31.7791 41.9524 31.7791 42.3368 32.1635Z" fill="#F78633"/>
<rect x="5.5" y="6" width="63" height="63" rx="31.5" stroke="#FEF6F0" strokeWidth="10.5"/>
</svg>
