<svg width="75" height="75" viewBox="0 0 75 75" fill="none" xmlns="http://www.w3.org/2000/svg">
<rect x="6" y="6.01562" width="63" height="63" rx="31.5" fill="#FDEDE1"/>
<path d="M50.625 37.5156C50.625 44.7644 44.7487 50.6406 37.5 50.6406M50.625 37.5156C50.625 30.2669 44.7487 24.3906 37.5 24.3906M50.625 37.5156H24.375M37.5 50.6406C30.2513 50.6406 24.375 44.7644 24.375 37.5156M37.5 50.6406C40.7829 47.0465 42.6486 42.3823 42.75 37.5156C42.6486 32.6489 40.7829 27.9847 37.5 24.3906M37.5 50.6406C34.2171 47.0465 32.3514 42.3823 32.25 37.5156C32.3514 32.6489 34.2171 27.9847 37.5 24.3906M24.375 37.5156C24.375 30.2669 30.2513 24.3906 37.5 24.3906" stroke="#F78E41" strokeWidth="2.625" strokeLinecap="round" strokeLinejoin="round"/>
<rect x="6" y="6.01562" width="63" height="63" rx="31.5" stroke="#FEF6F0" strokeWidth="10.5"/>
</svg>
