<svg width="192" height="192" viewBox="0 0 192 192" fill="none" xmlns="http://www.w3.org/2000/svg">
<path d="M22.6084 147.323C22.6084 110.432 3.59863 85.0987 3.59863 67.3227C3.59863 49.5467 13.7641 12.2134 95.1142 12.2134C176.464 12.2134 188.402 62.4374 188.402 81.9894C188.407 173.547 22.6084 212.656 22.6084 147.323Z" fill="#FDEDE1"/>
<path d="M173.668 31.3654C169.28 31.3654 165.709 27.776 165.709 23.3654C165.709 18.9547 169.28 15.3654 173.668 15.3654C178.055 15.3654 181.626 18.9547 181.626 23.3654C181.626 27.776 178.055 31.3654 173.668 31.3654ZM173.668 20.6987C172.209 20.6987 171.015 21.8987 171.015 23.3654C171.015 24.832 172.209 26.032 173.668 26.032C175.127 26.032 176.321 24.832 176.321 23.3654C176.321 21.8987 175.127 20.6987 173.668 20.6987Z" fill="#A4AFC1"/>
<path d="M142.424 36H62.8403C58.6189 36 54.5704 37.6857 51.5855 40.6863C48.6005 43.6869 46.9236 47.7565 46.9236 52V129.557H36.3125V145.333C36.3125 148.162 37.4305 150.875 39.4204 152.876C41.4104 154.876 44.1094 156 46.9236 156H115.896C114.522 156 113.211 155.776 112.628 154.272L116.941 155.893C120.26 155.64 123.362 154.137 125.627 151.685C127.892 149.233 129.153 146.013 129.16 142.667V57.3333H155.688V49.3333C155.688 45.7971 154.29 42.4057 151.803 39.9052C149.315 37.4048 145.941 36 142.424 36Z" fill="#FEF6F0"/>
<path d="M117.222 156L116.941 155.893C116.591 155.92 116.251 156 115.896 156H117.222Z" fill="#F3F3F1"/>
<path d="M102.632 108H73.4516C72.0444 108 70.6949 107.438 69.7 106.438C68.705 105.438 68.146 104.081 68.146 102.667V84C68.146 82.5855 68.705 81.2289 69.7 80.2287C70.6949 79.2285 72.0444 78.6666 73.4516 78.6666H102.632C104.039 78.6666 105.389 79.2285 106.384 80.2287C107.379 81.2289 107.938 82.5855 107.938 84V102.667C107.938 104.081 107.379 105.438 106.384 106.438C105.389 107.438 104.039 108 102.632 108Z" fill="#F9B17B"/>
<path d="M48.25 145.333V129.557H58.8611V52C58.8611 47.7565 60.538 43.6869 63.523 40.6863C66.5079 37.6857 70.5564 36 74.7778 36H62.8403C58.6189 36 54.5704 37.6857 51.5855 40.6863C48.6005 43.6869 46.9236 47.7565 46.9236 52V129.557H36.3125V145.333C36.3125 148.162 37.4305 150.875 39.4204 152.876C41.4104 154.876 44.1094 156 46.9236 156H58.8611C56.0469 156 53.3479 154.876 51.3579 152.876C49.368 150.875 48.25 148.162 48.25 145.333Z" fill="#D5DBE1"/>
<path d="M80.0835 102.667V84C80.0835 82.5855 80.6425 81.2289 81.6375 80.2287C82.6324 79.2285 83.9819 78.6666 85.3891 78.6666H73.4516C72.0444 78.6666 70.6949 79.2285 69.7 80.2287C68.705 81.2289 68.146 82.5855 68.146 84V102.667C68.146 104.081 68.705 105.438 69.7 106.438C70.6949 107.438 72.0444 108 73.4516 108H85.3891C83.9819 108 82.6324 107.438 81.6375 106.438C80.6425 105.438 80.0835 104.081 80.0835 102.667Z" fill="#F89F5E"/>
<path d="M102.632 112H73.4512C68.3314 112 64.1665 107.813 64.1665 102.667V84C64.1665 78.8533 68.3314 74.6666 73.4512 74.6666H102.632C107.752 74.6666 111.917 78.8533 111.917 84V102.667C111.917 107.813 107.752 112 102.632 112ZM73.4512 82.6666C73.0994 82.6666 72.7621 82.8071 72.5133 83.0571C72.2646 83.3072 72.1248 83.6463 72.1248 84V102.667C72.1248 103.403 72.7191 104 73.4512 104H102.632C102.984 104 103.321 103.859 103.57 103.609C103.818 103.359 103.958 103.02 103.958 102.667V84C103.958 83.6463 103.818 83.3072 103.57 83.0571C103.321 82.8071 102.984 82.6666 102.632 82.6666H73.4512Z" fill="#1D2939"/>
<path d="M97.3264 82.6667H78.757C77.7017 82.6667 76.6895 82.2453 75.9433 81.4951C75.1971 80.745 74.7778 79.7276 74.7778 78.6667V66.6667C74.7778 59.312 80.7254 53.3334 88.0417 53.3334C95.3581 53.3334 101.306 59.312 101.306 66.6667V78.6667C101.306 79.7276 100.886 80.745 100.14 81.4951C99.3939 82.2453 98.3818 82.6667 97.3264 82.6667ZM82.7362 74.6667H93.3473V66.6667C93.3473 65.2522 92.7883 63.8957 91.7933 62.8955C90.7983 61.8953 89.4488 61.3334 88.0417 61.3334C86.6346 61.3334 85.2851 61.8953 84.2901 62.8955C83.2951 63.8957 82.7362 65.2522 82.7362 66.6667V74.6667Z" fill="#1D2939"/>
<path d="M50.9027 129.557H42.9443V52C42.9514 46.6978 45.0498 41.6149 48.7794 37.8657C52.5091 34.1165 57.5656 32.0071 62.8402 32H142.424V40H62.8402C56.2613 40 50.9027 45.3867 50.9027 52V129.557Z" fill="#1D2939"/>
<path d="M155.688 61.3333H129.16C128.104 61.3333 127.092 60.9119 126.346 60.1618C125.6 59.4116 125.181 58.3942 125.181 57.3333V49.3333C125.181 39.776 132.916 32 142.424 32C151.931 32 159.667 39.776 159.667 49.3333V57.3333C159.667 58.3942 159.248 59.4116 158.501 60.1618C157.755 60.9119 156.743 61.3333 155.688 61.3333ZM133.139 53.3333H151.708V49.3333C151.708 44.1867 147.544 40 142.424 40C137.304 40 133.139 44.1867 133.139 49.3333V53.3333Z" fill="#1D2939"/>
<path d="M117.222 160H46.9238C43.0551 159.997 39.3456 158.451 36.61 155.701C33.8744 152.951 32.3363 149.222 32.3335 145.333V129.557C32.3335 128.497 32.7527 127.479 33.499 126.729C34.2452 125.979 35.2573 125.557 36.3127 125.557H102.632C103.687 125.557 104.7 125.979 105.446 126.729C106.192 127.479 106.611 128.497 106.611 129.557V142.667C106.611 147.813 110.776 152 115.896 152C121.016 152 125.181 147.813 125.181 142.667V57.3334H133.139V142.667C133.134 147.031 131.492 151.233 128.543 154.436C125.593 157.638 121.551 159.606 117.222 159.947V160ZM40.2918 133.557V145.333C40.2918 149.008 43.2682 152 46.9238 152H101.375C99.5956 149.216 98.6507 145.976 98.6529 142.667V133.557H40.2918Z" fill="#1D2939"/>
</svg>
