<svg width="192" height="191" viewBox="0 0 192 191" fill="none" xmlns="http://www.w3.org/2000/svg">
<path d="M147.323 168.892C110.432 168.892 85.0987 187.901 67.3227 187.901C49.5467 187.901 12.2134 177.736 12.2134 96.3859C12.2134 15.0358 62.4374 3.09302 81.9894 3.09302C173.547 3.09302 212.656 168.892 147.323 168.892Z" fill="#FDEDE1"/>
<path d="M168 90.1945C163.589 90.1945 160 86.6239 160 82.2362C160 77.8485 163.589 74.2778 168 74.2778C172.411 74.2778 176 77.8485 176 82.2362C176 86.6239 172.411 90.1945 168 90.1945ZM168 79.5834C167.291 79.5848 166.612 79.8662 166.112 80.3657C165.612 80.8652 165.332 81.5418 165.333 82.2468C165.335 82.9517 165.618 83.6273 166.12 84.1248C166.622 84.6223 167.302 84.901 168.011 84.8996C168.719 84.8982 169.398 84.6167 169.898 84.1173C170.399 83.6178 170.679 82.9411 170.677 82.2362C170.676 81.5312 170.393 80.8557 169.891 80.3582C169.389 79.8607 168.709 79.582 168 79.5834Z" fill="#A4AFC1"/>
<path d="M129.333 155.187H62.6667C59.8377 155.187 57.1246 154.07 55.1242 152.08C53.1238 150.09 52 147.391 52 144.576V46.4236C52 43.6094 53.1238 40.9104 55.1242 38.9204C57.1246 36.9305 59.8377 35.8125 62.6667 35.8125H129.333C132.162 35.8125 134.875 36.9305 136.876 38.9204C138.876 40.9104 140 43.6094 140 46.4236V144.576C140 147.391 138.876 150.09 136.876 152.08C134.875 154.07 132.162 155.187 129.333 155.187Z" fill="#FDEDE1"/>
<path d="M110.667 123.354H81.3333C79.9188 123.354 78.5623 122.795 77.5621 121.8C76.5619 120.805 76 119.456 76 118.049V99.4791C76 98.072 76.5619 96.7225 77.5621 95.7275C78.5623 94.7326 79.9188 94.1736 81.3333 94.1736H110.667C112.081 94.1736 113.438 94.7326 114.438 95.7275C115.438 96.7225 116 98.072 116 99.4791V118.049C116 119.456 115.438 120.805 114.438 121.8C113.438 122.795 112.081 123.354 110.667 123.354Z" fill="#F78633"/>
<path d="M88 118.049V99.4791C88 98.072 88.5619 96.7225 89.5621 95.7275C90.5623 94.7326 91.9188 94.1736 93.3333 94.1736H81.3333C79.9188 94.1736 78.5623 94.7326 77.5621 95.7275C76.5619 96.7225 76 98.072 76 99.4791V118.049C76 119.456 76.5619 120.805 77.5621 121.8C78.5623 122.795 79.9188 123.354 81.3333 123.354H93.3333C91.9188 123.354 90.5623 122.795 89.5621 121.8C88.5619 120.805 88 119.456 88 118.049Z" fill="#F78633"/>
<path d="M64 144.576V46.4236C64 43.6094 65.1238 40.9104 67.1242 38.9204C69.1246 36.9305 71.8377 35.8125 74.6667 35.8125H62.6667C59.8377 35.8125 57.1246 36.9305 55.1242 38.9204C53.1238 40.9104 52 43.6094 52 46.4236V144.576C52 147.391 53.1238 150.09 55.1242 152.08C57.1246 154.07 59.8377 155.187 62.6667 155.187H74.6667C71.8377 155.187 69.1246 154.07 67.1242 152.08C65.1238 150.09 64 147.391 64 144.576Z" fill="#D5DBE1"/>
<path d="M110.667 127.333H81.3333C76.1867 127.333 72 123.168 72 118.049V99.4791C72 94.3592 76.1867 90.1943 81.3333 90.1943H110.667C115.813 90.1943 120 94.3592 120 99.4791V118.049C120 123.168 115.813 127.333 110.667 127.333ZM81.3333 98.1527C80.9797 98.1527 80.6406 98.2924 80.3905 98.5412C80.1405 98.7899 80 99.1273 80 99.4791V118.049C80 118.781 80.5973 119.375 81.3333 119.375H110.667C111.02 119.375 111.359 119.235 111.609 118.986C111.86 118.738 112 118.4 112 118.049V99.4791C112 99.1273 111.86 98.7899 111.609 98.5412C111.359 98.2924 111.02 98.1527 110.667 98.1527H81.3333Z" fill="#1D2939"/>
<path d="M109.333 94.1736H101.333V82.2361C101.272 80.87 100.683 79.5801 99.6895 78.635C98.6961 77.69 97.3744 77.1625 95.9998 77.1625C94.6252 77.1625 93.3036 77.69 92.3101 78.635C91.3167 79.5801 90.7279 80.87 90.6665 82.2361V94.1736H82.6665V82.2361C82.6665 74.925 88.6452 68.9722 95.9998 68.9722C103.355 68.9722 109.333 74.925 109.333 82.2361V94.1736Z" fill="#1D2939"/>
<path d="M129.333 159.167H62.6667C58.7777 159.164 55.0488 157.626 52.2989 154.89C49.549 152.154 48.0028 148.445 48 144.576V46.4235C48.0028 42.5548 49.549 38.8453 52.2989 36.1097C55.0488 33.3741 58.7777 31.8361 62.6667 31.8333H129.333C133.222 31.8361 136.951 33.3741 139.701 36.1097C142.451 38.8453 143.997 42.5548 144 46.4235V144.576C143.997 148.445 142.451 152.154 139.701 154.89C136.951 157.626 133.222 159.164 129.333 159.167ZM62.6667 39.7916C58.992 39.7916 56 42.768 56 46.4235V144.576C56 148.232 58.992 151.208 62.6667 151.208H129.333C133.008 151.208 136 148.232 136 144.576V46.4235C136 42.768 133.008 39.7916 129.333 39.7916H62.6667Z" fill="#1D2939"/>
</svg>
