<svg width="192" height="192" viewBox="0 0 192 192" fill="none" xmlns="http://www.w3.org/2000/svg">
<path d="M44.6772 22.6082C81.5678 22.6082 106.901 3.59839 124.677 3.59839C142.453 3.59839 179.786 13.7638 179.786 95.1139C179.786 176.464 129.562 188.401 110.01 188.401C18.4532 188.407 -20.6562 22.6082 44.6772 22.6082Z" fill="#FDEDE1"/>
<path d="M143.499 14.3633L147.269 10.6123L154.816 18.1197L151.045 21.8707L143.499 14.3633ZM165.184 35.941L168.955 32.1847L176.501 39.6921L172.731 43.4431L165.184 35.941ZM164.24 18.1144L171.787 10.6123L175.557 14.3633L168.011 21.8707L164.24 18.1144Z" fill="#A4AFC1"/>
<path d="M96 155.687C129.137 155.687 156 128.964 156 96C156 63.0355 129.137 36.3125 96 36.3125C62.8629 36.3125 36 63.0355 36 96C36 128.964 62.8629 155.687 96 155.687Z" fill="#FDEDE1"/>
<path d="M144 155.688C150.627 155.688 156 150.343 156 143.75C156 137.157 150.627 131.812 144 131.812C137.373 131.812 132 137.157 132 143.75C132 150.343 137.373 155.688 144 155.688Z" fill="#F78633"/>
<path d="M48 96C48 65.0527 71.68 39.6073 102 36.6149C100.027 36.4186 98.0267 36.3125 96 36.3125C62.864 36.3125 36 63.0366 36 96C36 128.963 62.864 155.687 96 155.687C98.0267 155.687 100.027 155.581 102 155.385C71.68 152.393 48 126.947 48 96Z" fill="#D5DBE1"/>
<path d="M144 143.75C144.004 141.663 144.561 139.614 145.615 137.809C146.668 136.004 148.18 134.507 150 133.468C148.183 132.396 146.112 131.824 144 131.812C140.817 131.812 137.765 133.07 135.515 135.309C133.264 137.548 132 140.584 132 143.75C132 146.916 133.264 149.952 135.515 152.191C137.765 154.43 140.817 155.688 144 155.688C146.112 155.676 148.183 155.104 150 154.032C148.18 152.993 146.668 151.496 145.615 149.691C144.561 147.886 144.004 145.837 144 143.75Z" fill="#F78633"/>
<path d="M144 159.667C135.179 159.667 128 152.525 128 143.75C128 134.975 135.179 127.833 144 127.833C152.821 127.833 160 134.975 160 143.75C160 152.525 152.821 159.667 144 159.667ZM144 135.792C139.589 135.792 136 139.362 136 143.75C136 148.138 139.589 151.708 144 151.708C148.411 151.708 152 148.138 152 143.75C152 139.362 148.411 135.792 144 135.792Z" fill="#1D2939"/>
<path d="M98.6665 154.361H90.6665V146.403C90.6665 142.747 93.6585 139.771 97.3332 139.771H134.667V147.729H98.6665V154.361Z" fill="#1D2939"/>
<path d="M101.333 139.771H109.333V154.361H101.333V139.771ZM42.6665 64.1667H149.333V72.1251H42.6665V64.1667Z" fill="#1D2939"/>
<path d="M80.5545 158.027L76.7412 156.828C63.7368 152.777 52.3775 144.692 44.3266 133.755C36.2756 122.817 31.9559 109.604 31.9998 96.0477C31.9998 60.9143 60.7092 32.3333 95.9998 32.3333C131.291 32.3333 160 60.9143 160 96.0477C160 103.258 158.784 110.378 156.384 117.206L155.061 120.963L147.509 118.336L148.832 114.58C150.933 108.601 152 102.367 152 96.0477C152 65.302 126.88 40.2916 95.9998 40.2916C65.1198 40.2916 39.9998 65.302 39.9998 96.0477C39.9998 120.506 55.7332 141.882 79.1518 149.236L82.9652 150.435L80.5545 158.027Z" fill="#1D2939"/>
<path d="M76.608 147.994L74.5653 144.572C67.4133 132.603 63.3066 114.92 63.3066 96.0477C63.3066 60.3201 77.6693 32.3333 96 32.3333C114.331 32.3333 128.693 60.3201 128.693 96.0477C128.693 106.086 127.477 116.14 125.179 125.133L124.192 128.99L116.437 127.027L117.424 123.17C119.563 114.808 120.693 105.433 120.693 96.0477C120.693 62.697 107.925 40.2916 96 40.2916C84.0746 40.2916 71.3066 62.697 71.3066 96.0477C71.3066 113.529 74.9973 129.733 81.44 140.508L83.4826 143.93L76.608 147.994Z" fill="#1D2939"/>
<path d="M92 33.6597H100V131.812H92V33.6597Z" fill="#1D2939"/>
<path d="M33.3335 92.0208H158.667V99.9791H33.3335V92.0208Z" fill="#1D2939"/>
</svg>
