<svg width="181" height="60" viewBox="0 0 181 60" fill="none" xmlns="http://www.w3.org/2000/svg">
<g clipPath="url(#clip0_6370_2418)">
<path d="M165.954 0.000195H15.054C14.5039 0.000195 13.9605 0.000195 13.4119 0.003195C12.9527 0.006195 12.4971 0.01491 12.0335 0.022245C11.0262 0.0340977 10.0214 0.122709 9.0276 0.28731C8.03524 0.455494 7.07396 0.772569 6.17628 1.22781C5.2797 1.6869 4.46047 2.28345 3.74831 2.9958C3.03241 3.70615 2.43565 4.52722 1.98098 5.42743C1.52505 6.32586 1.20891 7.2886 1.04348 8.28242C0.87647 9.27497 0.786601 10.279 0.774678 11.2854C0.760758 11.7453 0.759288 12.2067 0.751953 12.6667V47.3381C0.759288 47.8038 0.760758 48.255 0.774678 48.7209C0.786604 49.7273 0.876473 50.7313 1.04348 51.7238C1.20846 52.7182 1.52462 53.6815 1.98098 54.5802C2.43544 55.4775 3.03228 56.2953 3.74831 57.0017C4.45777 57.7172 5.27753 58.3142 6.17628 58.7697C7.07395 59.2262 8.03513 59.5452 9.0276 59.7159C10.0215 59.8792 11.0263 59.9679 12.0335 59.9811C12.4971 59.9913 12.9527 59.9972 13.4119 59.9972C13.9605 60.0002 14.504 60.0002 15.054 60.0002H165.954C166.493 60.0002 167.041 60.0002 167.58 59.9972C168.037 59.9972 168.506 59.9913 168.963 59.9811C169.968 59.9686 170.971 59.8799 171.963 59.7159C172.959 59.544 173.923 59.2251 174.825 58.7697C175.723 58.3139 176.542 57.717 177.251 57.0017C177.965 56.2925 178.563 55.4754 179.023 54.5802C179.476 53.6808 179.79 52.7176 179.952 51.7238C180.119 50.7311 180.212 49.7274 180.23 48.7209C180.236 48.255 180.236 47.8038 180.236 47.3381C180.248 46.7931 180.248 46.2512 180.248 45.6974V14.3044C180.248 13.7551 180.248 13.2102 180.236 12.6667C180.236 12.2067 180.236 11.7453 180.23 11.2854C180.212 10.2788 180.119 9.27505 179.952 8.28236C179.789 7.28912 179.476 6.32645 179.023 5.42737C178.098 3.62299 176.629 2.15423 174.825 1.22767C173.923 0.773546 172.959 0.456556 171.963 0.287175C170.971 0.121849 169.968 0.0332066 168.963 0.022035C168.506 0.014715 168.037 0.005925 167.58 0.003C167.041 0 166.493 0 165.954 0V0.000195Z" fill="#A6A6A6"/>
<path d="M13.4193 58.6875C12.9622 58.6875 12.5163 58.6816 12.0628 58.6714C11.1235 58.6592 10.1864 58.5774 9.25911 58.4268C8.39449 58.2779 7.55691 58.0009 6.774 57.6049C5.99826 57.2123 5.29073 56.6974 4.6785 56.08C4.05741 55.47 3.54032 54.7624 3.14773 53.9853C2.75082 53.2032 2.47613 52.3648 2.33323 51.4995C2.17892 50.5697 2.09543 49.6295 2.08348 48.687C2.07397 48.3707 2.06152 47.3174 2.06152 47.3174V12.6665C2.06152 12.6665 2.07478 11.6294 2.08356 11.3247C2.095 10.3837 2.178 9.44498 2.33185 8.51659C2.47501 7.64888 2.74991 6.80812 3.14704 6.02344C3.53819 5.24692 4.05241 4.53879 4.66975 3.92652C5.28641 3.30843 5.99621 2.79091 6.77326 2.39281C7.55438 1.99814 8.39038 1.7231 9.25324 1.57691C10.1835 1.42475 11.1239 1.34249 12.0665 1.33082L13.42 1.3125H167.573L168.942 1.33155C169.876 1.34265 170.808 1.42417 171.73 1.57543C172.602 1.72346 173.446 2.00042 174.236 2.39721C175.793 3.19948 177.06 4.46874 177.859 6.02711C178.25 6.80637 178.52 7.64026 178.662 8.50048C178.817 9.43649 178.905 10.3826 178.922 11.3313C178.927 11.7561 178.927 12.2124 178.927 12.6665C178.939 13.229 178.939 13.7644 178.939 14.3042V45.6972C178.939 46.2421 178.939 46.7739 178.927 47.31C178.927 47.7978 178.927 48.2446 178.921 48.7046C178.903 49.6363 178.818 50.5655 178.665 51.4848C178.525 52.3564 178.251 53.2013 177.855 53.9898C177.459 54.7584 176.945 55.4599 176.331 56.0683C175.718 56.689 175.01 57.2069 174.232 57.6021C173.444 58.0011 172.601 58.2791 171.73 58.4268C170.803 58.5782 169.866 58.66 168.926 58.6714C168.487 58.6816 168.027 58.6875 167.58 58.6875L165.954 58.6905L13.4193 58.6875Z" fill="black"/>
<path d="M64.2061 40.7095H57.106L55.4009 45.7442H52.3936L59.1187 27.1172H62.2432L68.9683 45.7442H65.9097L64.2061 40.7095ZM57.8413 38.3863H63.4693L60.6949 30.2154H60.6172L57.8413 38.3863Z" fill="white"/>
<path d="M83.4927 38.9547C83.4927 43.1749 81.2339 45.8863 77.8252 45.8863C76.9618 45.9315 76.103 45.7326 75.3473 45.3124C74.5916 44.8921 73.9695 44.2676 73.5523 43.5103H73.4878V50.2369H70.7002V32.1636H73.3985V34.4224H73.4498C73.8862 33.6687 74.5188 33.0474 75.2802 32.6247C76.0417 32.2019 76.9035 31.9935 77.774 32.0215C81.2207 32.0216 83.4927 34.7462 83.4927 38.9547ZM80.6275 38.9547C80.6275 36.2052 79.2066 34.3975 77.0386 34.3975C74.9087 34.3975 73.4761 36.2432 73.4761 38.9547C73.4761 41.691 74.9087 43.5235 77.0386 43.5235C79.2066 43.5235 80.6275 41.7291 80.6275 38.9547Z" fill="white"/>
<path d="M98.44 38.9547C98.44 43.1749 96.1812 45.8863 92.7725 45.8863C91.909 45.9315 91.0503 45.7326 90.2946 45.3123C89.5389 44.8921 88.9168 44.2676 88.4996 43.5103H88.4351V50.2369H85.6475V32.1636H88.3457V34.4224H88.397C88.8334 33.6687 89.466 33.0474 90.2274 32.6247C90.9889 32.2019 91.8507 31.9935 92.7212 32.0215C96.168 32.0215 98.44 34.7461 98.44 38.9547ZM95.5747 38.9547C95.5747 36.2052 94.1538 34.3975 91.9859 34.3975C89.856 34.3975 88.4234 36.2432 88.4234 38.9547C88.4234 41.691 89.856 43.5235 91.9859 43.5235C94.1539 43.5235 95.5748 41.7291 95.5748 38.9547H95.5747Z" fill="white"/>
<path d="M108.318 40.5543C108.525 42.4015 110.319 43.6143 112.772 43.6143C115.121 43.6143 116.812 42.4014 116.812 40.7359C116.812 39.29 115.792 38.4243 113.378 37.8311L110.964 37.2495C107.544 36.4233 105.956 34.8237 105.956 32.228C105.956 29.0142 108.756 26.8066 112.733 26.8066C116.669 26.8066 119.368 29.0142 119.459 32.228H116.645C116.476 30.3691 114.939 29.2471 112.694 29.2471C110.448 29.2471 108.912 30.3823 108.912 32.0347C108.912 33.3516 109.893 34.1265 112.294 34.7197L114.346 35.2236C118.168 36.1274 119.756 37.6626 119.756 40.3872C119.756 43.872 116.98 46.0546 112.565 46.0546C108.434 46.0546 105.645 43.9233 105.465 40.5541L108.318 40.5543Z" fill="white"/>
<path d="M125.772 28.9497V32.1636H128.355V34.3711H125.772V41.8579C125.772 43.021 126.29 43.563 127.425 43.563C127.731 43.5576 128.037 43.5361 128.342 43.4985V45.6928C127.831 45.7882 127.313 45.8314 126.793 45.8217C124.044 45.8217 122.972 44.789 122.972 42.1552V34.3711H120.997V32.1636H122.972V28.9497H125.772Z" fill="white"/>
<path d="M129.85 38.9546C129.85 34.6816 132.366 31.9966 136.291 31.9966C140.228 31.9966 142.733 34.6816 142.733 38.9546C142.733 43.2393 140.241 45.9126 136.291 45.9126C132.341 45.9126 129.85 43.2392 129.85 38.9546ZM139.893 38.9546C139.893 36.0234 138.549 34.2935 136.291 34.2935C134.032 34.2935 132.69 36.0366 132.69 38.9546C132.69 41.8975 134.032 43.6143 136.291 43.6143C138.549 43.6143 139.893 41.8975 139.893 38.9546H139.893Z" fill="white"/>
<path d="M145.031 32.1635H147.69V34.475H147.754C147.934 33.7531 148.357 33.1151 148.952 32.6683C149.547 32.2214 150.278 31.993 151.021 32.0214C151.342 32.0203 151.663 32.0552 151.976 32.1254V34.7328C151.571 34.6089 151.148 34.552 150.724 34.5644C150.319 34.548 149.915 34.6194 149.54 34.7737C149.165 34.928 148.828 35.1616 148.553 35.4585C148.277 35.7553 148.068 36.1083 147.941 36.4933C147.815 36.8783 147.773 37.2862 147.819 37.6889V45.7441H145.031L145.031 32.1635Z" fill="white"/>
<path d="M164.83 41.7554C164.455 44.2207 162.054 45.9126 158.982 45.9126C155.031 45.9126 152.579 43.2656 152.579 39.019C152.579 34.7593 155.044 31.9966 158.865 31.9966C162.622 31.9966 164.985 34.5776 164.985 38.6953V39.6504H155.393V39.8188C155.349 40.3186 155.411 40.8221 155.577 41.2959C155.742 41.7697 156.006 42.2028 156.352 42.5667C156.697 42.9305 157.116 43.2166 157.581 43.4061C158.045 43.5955 158.545 43.684 159.046 43.6655C159.705 43.7272 160.366 43.5747 160.931 43.2305C161.496 42.8864 161.935 42.369 162.183 41.7554L164.83 41.7554ZM155.406 37.7021H162.196C162.221 37.2528 162.153 36.803 161.996 36.3812C161.839 35.9594 161.596 35.5746 161.283 35.251C160.971 34.9273 160.594 34.6718 160.178 34.5005C159.762 34.3291 159.315 34.2457 158.865 34.2554C158.411 34.2527 157.961 34.3399 157.541 34.512C157.121 34.6841 156.739 34.9377 156.417 35.2582C156.096 35.5786 155.841 35.9596 155.667 36.379C155.494 36.7985 155.405 37.2482 155.406 37.7022V37.7021Z" fill="white"/>
<path d="M57.4907 13.0966C58.0751 13.0546 58.6616 13.1429 59.2077 13.3551C59.7539 13.5672 60.2462 13.898 60.6491 14.3234C61.052 14.7488 61.3554 15.2584 61.5375 15.8153C61.7196 16.3722 61.7758 16.9626 61.7021 17.5438C61.7021 20.4032 60.1567 22.0468 57.4907 22.0468H54.2578V13.0966H57.4907ZM55.6479 20.7811H57.3354C57.753 20.806 58.171 20.7376 58.5588 20.5807C58.9466 20.4237 59.2945 20.1823 59.5773 19.874C59.86 19.5656 60.0704 19.1981 60.1932 18.7982C60.316 18.3982 60.3481 17.976 60.2871 17.5621C60.3437 17.1498 60.3083 16.7302 60.1837 16.3332C60.059 15.9362 59.848 15.5717 59.5659 15.2658C59.2838 14.9599 58.9376 14.7202 58.552 14.5638C58.1663 14.4075 57.7509 14.3383 57.3354 14.3614H55.6479V20.7811Z" fill="white"/>
<path d="M63.2729 18.6667C63.2304 18.2228 63.2812 17.7749 63.422 17.3518C63.5627 16.9287 63.7904 16.5397 64.0903 16.2098C64.3902 15.8798 64.7557 15.6161 65.1635 15.4357C65.5713 15.2553 66.0123 15.1621 66.4582 15.1621C66.9041 15.1621 67.3451 15.2553 67.7528 15.4357C68.1606 15.6161 68.5262 15.8798 68.8261 16.2098C69.126 16.5397 69.3537 16.9287 69.4944 17.3518C69.6352 17.7749 69.6859 18.2228 69.6435 18.6667C69.6868 19.111 69.6366 19.5595 69.4962 19.9833C69.3558 20.4071 69.1283 20.7968 68.8283 21.1274C68.5283 21.458 68.1625 21.7222 67.7543 21.903C67.3461 22.0838 66.9046 22.1772 66.4582 22.1772C66.0117 22.1772 65.5703 22.0838 65.1621 21.903C64.7539 21.7222 64.388 21.458 64.088 21.1274C63.7881 20.7968 63.5606 20.4071 63.4202 19.9833C63.2798 19.5595 63.2296 19.111 63.2729 18.6667ZM68.2724 18.6667C68.2724 17.2026 67.6147 16.3464 66.4604 16.3464C65.3017 16.3464 64.6499 17.2026 64.6499 18.6667C64.6499 20.1425 65.3017 20.9921 66.4604 20.9921C67.6147 20.9921 68.2724 20.1366 68.2724 18.6667H68.2724Z" fill="white"/>
<path d="M78.1113 22.0469H76.7285L75.3325 17.0723H75.2271L73.8369 22.0469H72.4673L70.6055 15.2925H71.9575L73.1675 20.4465H73.2671L74.6558 15.2925H75.9346L77.3232 20.4465H77.4287L78.6328 15.2925H79.9658L78.1113 22.0469Z" fill="white"/>
<path d="M81.5313 15.2923H82.8145V16.3653H82.9141C83.083 15.9799 83.3681 15.6569 83.7294 15.4411C84.0907 15.2254 84.5103 15.1278 84.9297 15.1619C85.2583 15.1372 85.5883 15.1868 85.8952 15.3069C86.2021 15.4271 86.4781 15.6147 86.7026 15.856C86.9271 16.0972 87.0945 16.3859 87.1923 16.7007C87.2901 17.0154 87.3158 17.3481 87.2676 17.6741V22.0466H85.9346V18.0089C85.9346 16.9234 85.4629 16.3836 84.4771 16.3836C84.2539 16.3732 84.0312 16.4112 83.8241 16.4949C83.617 16.5787 83.4305 16.7062 83.2773 16.8688C83.1241 17.0314 83.0079 17.2252 82.9366 17.4368C82.8653 17.6485 82.8406 17.8732 82.8643 18.0953V22.0467H81.5312L81.5313 15.2923Z" fill="white"/>
<path d="M89.3926 12.6558H90.7256V22.0469H89.3926V12.6558Z" fill="white"/>
<path d="M92.5785 18.6668C92.5361 18.2229 92.5869 17.775 92.7277 17.3519C92.8685 16.9288 93.0961 16.5398 93.3961 16.2098C93.696 15.8798 94.0616 15.6161 94.4694 15.4357C94.8772 15.2553 95.3183 15.1621 95.7642 15.1621C96.2101 15.1621 96.6511 15.2553 97.0589 15.4357C97.4667 15.6161 97.8323 15.8798 98.1323 16.2098C98.4322 16.5398 98.6599 16.9288 98.8007 17.3519C98.9415 17.775 98.9923 18.2229 98.9498 18.6668C98.9931 19.1112 98.9428 19.5596 98.8024 19.9834C98.662 20.4072 98.4344 20.7969 98.1344 21.1275C97.8344 21.4581 97.4685 21.7223 97.0603 21.9031C96.6521 22.0839 96.2106 22.1773 95.7642 22.1773C95.3177 22.1773 94.8762 22.0839 94.468 21.9031C94.0598 21.7223 93.694 21.4581 93.3939 21.1275C93.0939 20.7969 92.8664 20.4072 92.7259 19.9834C92.5855 19.5596 92.5353 19.1112 92.5785 18.6668ZM97.578 18.6668C97.578 17.2027 96.9203 16.3465 95.766 16.3465C94.6073 16.3465 93.9555 17.2027 93.9555 18.6668C93.9555 20.1427 94.6074 20.9923 95.766 20.9923C96.9203 20.9922 97.578 20.1368 97.578 18.6668H97.578Z" fill="white"/>
<path d="M100.352 20.1367C100.352 18.9209 101.257 18.22 102.864 18.1203L104.693 18.0149V17.4319C104.693 16.7185 104.222 16.3157 103.311 16.3157C102.566 16.3157 102.051 16.5889 101.903 17.0664H100.612C100.749 15.9062 101.84 15.1621 103.372 15.1621C105.065 15.1621 106.021 16.0051 106.021 17.4319V22.0469H104.737V21.0977H104.632C104.418 21.4381 104.117 21.7157 103.761 21.902C103.404 22.0883 103.005 22.1767 102.603 22.1582C102.319 22.1876 102.033 22.1574 101.762 22.0693C101.491 21.9813 101.241 21.8374 101.029 21.647C100.817 21.4565 100.647 21.2237 100.53 20.9636C100.414 20.7035 100.353 20.4218 100.352 20.1367ZM104.693 19.5596V18.9949L103.044 19.1003C102.114 19.1626 101.692 19.479 101.692 20.0744C101.692 20.6823 102.219 21.0361 102.944 21.0361C103.157 21.0576 103.371 21.0362 103.575 20.973C103.779 20.9099 103.969 20.8064 104.132 20.6686C104.295 20.5308 104.429 20.3617 104.525 20.1711C104.622 19.9806 104.679 19.7726 104.693 19.5596Z" fill="white"/>
<path d="M107.773 18.6668C107.773 16.5325 108.871 15.1804 110.577 15.1804C110.999 15.161 111.418 15.2621 111.785 15.4719C112.152 15.6818 112.451 15.9917 112.648 16.3654H112.748V12.6558H114.081V22.0469H112.804V20.9797H112.698C112.486 21.351 112.176 21.657 111.802 21.8647C111.428 22.0725 111.005 22.1739 110.577 22.1582C108.859 22.1583 107.773 20.8062 107.773 18.6668ZM109.15 18.6668C109.15 20.0994 109.826 20.9615 110.955 20.9615C112.079 20.9615 112.773 20.087 112.773 18.6726C112.773 17.2649 112.071 16.378 110.955 16.378C109.833 16.378 109.15 17.2459 109.15 18.6668H109.15Z" fill="white"/>
<path d="M119.596 18.6667C119.554 18.2228 119.604 17.7749 119.745 17.3518C119.886 16.9287 120.114 16.5397 120.414 16.2098C120.713 15.8798 121.079 15.6161 121.487 15.4357C121.895 15.2553 122.336 15.1621 122.781 15.1621C123.227 15.1621 123.668 15.2553 124.076 15.4357C124.484 15.6161 124.849 15.8798 125.149 16.2098C125.449 16.5397 125.677 16.9287 125.818 17.3518C125.958 17.7749 126.009 18.2228 125.967 18.6667C126.01 19.111 125.96 19.5595 125.819 19.9833C125.679 20.4071 125.452 20.7968 125.152 21.1274C124.852 21.458 124.486 21.7222 124.078 21.903C123.669 22.0838 123.228 22.1772 122.781 22.1772C122.335 22.1772 121.893 22.0838 121.485 21.903C121.077 21.7222 120.711 21.458 120.411 21.1274C120.111 20.7968 119.884 20.4071 119.743 19.9833C119.603 19.5595 119.553 19.111 119.596 18.6667ZM124.596 18.6667C124.596 17.2026 123.938 16.3464 122.784 16.3464C121.625 16.3464 120.973 17.2026 120.973 18.6667C120.973 20.1425 121.625 20.9921 122.784 20.9921C123.938 20.9921 124.596 20.1366 124.596 18.6667Z" fill="white"/>
<path d="M127.755 15.2923H129.038V16.3653H129.138C129.307 15.9799 129.592 15.6569 129.953 15.4411C130.314 15.2254 130.734 15.1278 131.153 15.1619C131.482 15.1372 131.812 15.1868 132.119 15.3069C132.426 15.4271 132.702 15.6147 132.926 15.856C133.151 16.0972 133.318 16.3859 133.416 16.7007C133.514 17.0154 133.539 17.3481 133.491 17.6741V22.0466H132.158V18.0089C132.158 16.9234 131.687 16.3836 130.701 16.3836C130.478 16.3732 130.255 16.4112 130.048 16.4949C129.841 16.5787 129.654 16.7062 129.501 16.8688C129.348 17.0314 129.232 17.2252 129.16 17.4368C129.089 17.6485 129.064 17.8732 129.088 18.0953V22.0467H127.755V15.2923Z" fill="white"/>
<path d="M141.024 13.6108V15.3232H142.487V16.446H141.024V19.9192C141.024 20.6267 141.315 20.9365 141.979 20.9365C142.149 20.936 142.319 20.9257 142.487 20.9058V22.0161C142.248 22.0589 142.005 22.0817 141.762 22.0842C140.28 22.0842 139.689 21.5627 139.689 20.2605V16.446H138.617V15.3232H139.689V13.6108H141.024Z" fill="white"/>
<path d="M144.31 12.6558H145.631V16.3779H145.736C145.914 15.989 146.206 15.6641 146.575 15.4475C146.943 15.231 147.37 15.1334 147.796 15.168C148.123 15.1502 148.45 15.2048 148.753 15.3278C149.056 15.4509 149.329 15.6394 149.551 15.8799C149.773 16.1204 149.94 16.407 150.038 16.7192C150.137 17.0314 150.166 17.3615 150.122 17.686V22.0469H148.788V18.0149C148.788 16.936 148.285 16.3896 147.343 16.3896C147.114 16.3708 146.884 16.4023 146.668 16.4819C146.452 16.5615 146.257 16.6872 146.095 16.8504C145.933 17.0135 145.808 17.21 145.73 17.4262C145.652 17.6424 145.622 17.8731 145.643 18.102V22.0469H144.31L144.31 12.6558Z" fill="white"/>
<path d="M157.893 20.2233C157.712 20.8406 157.32 21.3745 156.785 21.7318C156.249 22.089 155.606 22.2467 154.966 22.1773C154.521 22.1891 154.079 22.1039 153.67 21.9276C153.262 21.7513 152.896 21.4881 152.599 21.1564C152.302 20.8247 152.081 20.4324 151.951 20.0067C151.821 19.5809 151.785 19.132 151.846 18.691C151.787 18.2487 151.823 17.7988 151.953 17.3718C152.083 16.9448 152.303 16.5506 152.598 16.216C152.893 15.8814 153.257 15.6142 153.665 15.4323C154.072 15.2505 154.514 15.1584 154.96 15.1622C156.84 15.1622 157.974 16.4462 157.974 18.5672V19.0324H153.204V19.1071C153.183 19.3549 153.214 19.6044 153.296 19.8395C153.377 20.0747 153.506 20.2902 153.676 20.4724C153.845 20.6546 154.05 20.7994 154.279 20.8975C154.508 20.9956 154.754 21.0448 155.003 21.0421C155.322 21.0803 155.645 21.0229 155.931 20.8771C156.217 20.7313 156.453 20.5037 156.61 20.2232L157.893 20.2233ZM153.204 18.0465H156.616C156.632 17.8198 156.602 17.5921 156.525 17.378C156.449 17.164 156.328 16.9682 156.172 16.8034C156.015 16.6387 155.826 16.5085 155.616 16.4212C155.406 16.3339 155.18 16.2915 154.953 16.2967C154.723 16.2939 154.494 16.3371 154.28 16.4241C154.067 16.511 153.873 16.6398 153.71 16.8028C153.547 16.9659 153.418 17.16 153.331 17.3735C153.244 17.5871 153.201 17.816 153.204 18.0465H153.204Z" fill="white"/>
<path d="M37.905 30.4505C37.9211 29.1985 38.2536 27.9709 38.8717 26.882C39.4897 25.7931 40.3732 24.8782 41.4398 24.2224C40.7622 23.2547 39.8683 22.4583 38.829 21.8964C37.7898 21.3346 36.6339 21.0228 35.4531 20.9859C32.9342 20.7215 30.4923 22.4931 29.2087 22.4931C27.9003 22.4931 25.924 21.0121 23.796 21.0559C22.4194 21.1004 21.0779 21.5007 19.9021 22.2178C18.7263 22.9348 17.7563 23.9443 17.0866 25.1477C14.1856 30.1704 16.3495 37.5519 19.1284 41.6118C20.5187 43.5999 22.1436 45.8205 24.2698 45.7418C26.3504 45.6555 27.1275 44.4151 29.6389 44.4151C32.1271 44.4151 32.8561 45.7418 35.0254 45.6917C37.258 45.6555 38.6646 43.6949 40.0062 41.688C41.0051 40.2715 41.7738 38.7059 42.2838 37.0492C40.9868 36.5007 39.8799 35.5824 39.1012 34.4089C38.3225 33.2355 37.9065 31.8588 37.905 30.4505Z" fill="white"/>
<path d="M33.8073 18.316C35.0246 16.8547 35.6243 14.9764 35.4791 13.0801C33.6194 13.2754 31.9015 14.1642 30.6677 15.5695C30.0645 16.256 29.6025 17.0546 29.3082 17.9198C29.0138 18.785 28.8928 19.6996 28.9522 20.6116C29.8824 20.6212 30.8026 20.4195 31.6436 20.0219C32.4846 19.6243 33.2244 19.041 33.8073 18.316Z" fill="white"/>
</g>
<defs>
<clipPath id="clip0_6370_2418">
<rect width="179.496" height="60" fill="white" transform="translate(0.751953)"/>
</clipPath>
</defs>
</svg>
