<svg width="49" height="49" viewBox="0 0 49 49" fill="none" xmlns="http://www.w3.org/2000/svg">
<g clipPath="url(#clip0_6286_6833)">
<path d="M17.4908 48.4C10.3471 48.359 4.43774 33.7759 4.43774 26.3489C4.43774 14.2172 13.5384 11.5613 17.0463 11.5613C18.6269 11.5613 20.3147 12.1818 21.8034 12.7321C22.8445 13.1153 23.9198 13.5107 24.5196 13.5107C25.1923 13.3803 25.8466 13.1686 26.4681 12.8803C28.0586 12.2471 30.0372 11.4604 32.3415 11.4604H32.355C34.0756 11.4604 39.2928 11.8383 42.4292 16.5489L43.1641 17.6531L42.1068 18.451C40.596 19.5907 37.8401 21.6698 37.8401 25.7883C37.8401 30.666 40.9617 32.5429 42.4612 33.4435C43.1231 33.8416 43.8085 34.2541 43.8085 35.1506C43.8085 35.736 39.1285 48.3289 32.332 48.3289C30.9871 48.3014 29.6645 47.9803 28.4567 47.3882C27.3852 46.8515 26.2052 46.567 25.0069 46.5565C24.0627 46.655 23.1404 46.9045 22.2753 47.2954C20.8884 47.8128 19.3186 48.4009 17.5376 48.4009L17.4908 48.4Z" fill="#F89F5E"/>
<path d="M33.0615 0.399902C33.2385 6.7821 28.6742 11.2095 24.1153 10.9321C23.3642 5.83871 28.6737 0.399902 33.0615 0.399902Z" fill="#F89F5E"/>
</g>
<defs>
<clipPath id="clip0_6286_6833">
<rect width="48" height="48" fill="white" transform="translate(0.123047 0.399902)"/>
</clipPath>
</defs>
</svg>
