<svg width="49" height="49" viewBox="0 0 49 49" fill="none" xmlns="http://www.w3.org/2000/svg">
<g clipPath="url(#clip0_6286_6868)">
<path d="M38.8706 29.1997H34.0708V19.6001H38.8706C40.7693 19.6001 42.6254 19.0371 44.2041 17.9822C45.7829 16.9273 47.0133 15.428 47.7399 13.6738C48.4666 11.9196 48.6567 9.98935 48.2862 8.12711C47.9158 6.26488 47.0015 4.5543 45.6589 3.21171C44.3163 1.86911 42.6057 0.954791 40.7435 0.58437C38.8813 0.213948 36.951 0.404062 35.1968 1.13067C33.4426 1.85728 31.9433 3.08775 30.8884 4.66647C29.8336 6.2452 29.2705 8.10128 29.2705 10V14.7998H19.6709V10C19.6709 8.10128 19.1079 6.2452 18.053 4.66647C16.9981 3.08775 15.4988 1.85728 13.7446 1.13067C11.9904 0.404062 10.0601 0.213948 8.19791 0.58437C6.33568 0.954791 4.62511 1.86911 3.28251 3.21171C1.93991 4.5543 1.02559 6.26488 0.65517 8.12711C0.284749 9.98935 0.474863 11.9196 1.20147 13.6738C1.92808 15.428 3.15855 16.9273 4.73727 17.9822C6.316 19.0371 8.17208 19.6001 10.0708 19.6001H14.8706V29.1997H10.0708C8.17208 29.1997 6.316 29.7628 4.73727 30.8176C3.15855 31.8725 1.92808 33.3718 1.20147 35.126C0.474863 36.8802 0.284749 38.8105 0.65517 40.6727C1.02559 42.5349 1.93991 44.2455 3.28251 45.5881C4.62511 46.9307 6.33568 47.845 8.19791 48.2154C10.0601 48.5859 11.9904 48.3958 13.7446 47.6691C15.4988 46.9425 16.9981 45.7121 18.053 44.1333C19.1079 42.5546 19.6709 40.6985 19.6709 38.7998V34H29.2705V38.7881C29.2705 38.7931 29.2705 38.7967 29.2705 38.8003C29.2705 40.699 29.8335 42.555 30.8884 44.1337C31.9433 45.7125 33.4426 46.9429 35.1967 47.6695C36.9509 48.3962 38.8811 48.5863 40.7433 48.2159C42.6056 47.8455 44.3161 46.9313 45.6587 45.5887C47.0014 44.2462 47.9157 42.5356 48.2862 40.6734C48.6567 38.8112 48.4666 36.881 47.7401 35.1268C47.0135 33.3726 45.7831 31.8732 44.2045 30.8183C42.6258 29.7634 40.7698 29.2003 38.8711 29.2002L38.8706 29.1997ZM38.8706 5.19838C40.1437 5.19838 41.3646 5.70409 42.2648 6.60428C43.1649 7.50446 43.6707 8.72537 43.6707 9.99842C43.6707 11.2715 43.1649 12.4924 42.2648 13.3926C41.3646 14.2927 40.1437 14.7985 38.8706 14.7985H34.0708V10C34.0708 8.72696 34.5765 7.50606 35.4766 6.60585C36.3767 5.70564 37.5976 5.19985 38.8706 5.19973V5.19838ZM5.27053 10C5.27053 9.36965 5.39468 8.74547 5.63591 8.1631C5.87713 7.58073 6.2307 7.05158 6.67643 6.60585C7.12215 6.16013 7.65131 5.80656 8.23368 5.56533C8.81604 5.32411 9.44022 5.19995 10.0706 5.19995C10.7009 5.19995 11.3251 5.32411 11.9075 5.56533C12.4898 5.80656 13.019 6.16013 13.4647 6.60585C13.9104 7.05158 14.264 7.58073 14.5052 8.1631C14.7465 8.74547 14.8706 9.36965 14.8706 10V14.7998H10.0708C8.7978 14.7997 7.57697 14.294 6.67678 13.3939C5.7766 12.4938 5.27077 11.273 5.27053 10ZM10.0708 43.6001C8.79775 43.6001 7.57684 43.0944 6.67665 42.1942C5.77647 41.294 5.27075 40.0731 5.27075 38.8C5.27075 37.527 5.77647 36.3061 6.67665 35.4059C7.57684 34.5057 8.79775 34 10.0708 34H14.8706V38.7998C14.8706 40.0728 14.3649 41.2938 13.4648 42.194C12.5647 43.0942 11.3438 43.6 10.0708 43.6001ZM19.6709 29.1997V19.6001H29.2705V29.1997H19.6709ZM38.8706 43.6001C37.5976 43.6 36.3767 43.0942 35.4766 42.194C34.5765 41.2938 34.0708 40.0728 34.0708 38.7998V34H38.8702C40.1432 34 41.3641 34.5057 42.2643 35.4059C43.1645 36.3061 43.6702 37.527 43.6702 38.8C43.6702 40.0731 43.1645 41.294 42.2643 42.1942C41.3641 43.0944 40.1437 43.6001 38.8706 43.6001Z" fill="#F89F5E"/>
</g>
<defs>
<clipPath id="clip0_6286_6868">
<rect width="48" height="48" fill="white" transform="translate(0.470703 0.399902)"/>
</clipPath>
</defs>
</svg>
