<svg width="225" height="58" viewBox="0 0 225 58" fill="none" xmlns="http://www.w3.org/2000/svg">
<g clipPath="url(#clip0_6378_3618)">
<path d="M210.999 0.250065H14.0088C13.4817 0.250065 12.9609 0.250065 12.4352 0.25294C11.9951 0.255815 11.5585 0.264167 11.1142 0.271196C10.1489 0.282555 9.18592 0.367474 8.23357 0.525217C7.28255 0.686393 6.36133 0.990256 5.50105 1.42653C4.64183 1.86649 3.85673 2.43818 3.17424 3.12085C2.48817 3.80161 1.91628 4.58846 1.48055 5.45117C1.04362 6.31216 0.740655 7.23479 0.582112 8.18719C0.422063 9.13839 0.335938 10.1006 0.324513 11.0651C0.311173 11.5058 0.309764 11.948 0.302734 12.3888V45.6156C0.309764 46.0619 0.311172 46.4943 0.324498 46.9408C0.335927 47.9052 0.422052 48.8674 0.582098 49.8185C0.740203 50.7715 1.04319 51.6946 1.48054 52.5559C1.91607 53.4159 2.48805 54.1995 3.17424 54.8765C3.85414 55.5622 4.63975 56.1343 5.50105 56.5709C6.36132 57.0083 7.28244 57.314 8.23357 57.4777C9.18608 57.6341 10.149 57.7191 11.1142 57.7318C11.5585 57.7416 11.9951 57.7472 12.4352 57.7472C12.9609 57.7501 13.4817 57.7501 14.0088 57.7501H210.999C211.516 57.7501 212.04 57.7501 212.557 57.7472C212.995 57.7472 213.444 57.7416 213.882 57.7318C214.846 57.7198 215.807 57.6348 216.757 57.4777C217.712 57.3128 218.636 57.0073 219.5 56.5709C220.361 56.134 221.146 55.562 221.825 54.8765C222.51 54.1969 223.083 53.4138 223.524 52.5559C223.958 51.694 224.258 50.7709 224.414 49.8185C224.574 48.8672 224.663 47.9053 224.68 46.9408C224.686 46.4943 224.686 46.0619 224.686 45.6156C224.697 45.0933 224.697 44.5739 224.697 44.0432V13.9583C224.697 13.4318 224.697 12.9096 224.686 12.3888C224.686 11.948 224.686 11.5058 224.68 11.065C224.663 10.1004 224.574 9.13847 224.414 8.18714C224.257 7.23528 223.957 6.31273 223.524 5.45111C222.636 3.72191 221.229 2.31435 219.5 1.4264C218.636 0.991193 217.711 0.68741 216.757 0.525087C215.807 0.36665 214.846 0.281701 213.882 0.270995C213.444 0.26398 212.995 0.255556 212.557 0.252753C212.04 0.249878 211.516 0.249878 210.999 0.249878V0.250065Z" fill="#A6A6A6"/>
<path d="M12.4421 56.4922C12.0041 56.4922 11.5767 56.4866 11.1422 56.4768C10.242 56.4651 9.34392 56.3867 8.4553 56.2423C7.62671 56.0996 6.82403 55.8342 6.07374 55.4547C5.33032 55.0784 4.65227 54.585 4.06555 53.9934C3.47034 53.4087 2.9748 52.7306 2.59857 51.9859C2.21819 51.2364 1.95495 50.433 1.81801 49.6037C1.67012 48.7126 1.59011 47.8116 1.57866 46.9084C1.56955 46.6052 1.55762 45.5958 1.55762 45.5958V12.3887C1.55762 12.3887 1.57032 11.3948 1.57873 11.1028C1.5897 10.2011 1.66924 9.30144 1.81668 8.41174C1.95388 7.58017 2.21733 6.77445 2.59791 6.02247C2.97276 5.27829 3.46555 4.59967 4.05717 4.01292C4.64813 3.42058 5.32835 2.92462 6.07304 2.54311C6.82161 2.16488 7.62277 1.9013 8.44968 1.7612C9.34122 1.61539 10.2424 1.53656 11.1457 1.52536L12.4428 1.50781H212.55L213.863 1.52607C214.758 1.53671 215.651 1.61483 216.534 1.75979C217.369 1.90165 218.179 2.16707 218.936 2.54733C220.428 3.31617 221.642 4.53255 222.408 6.02598C222.782 6.77277 223.041 7.57192 223.177 8.3963C223.326 9.2933 223.41 10.2 223.427 11.1092C223.431 11.5163 223.431 11.9535 223.431 12.3887C223.442 12.9278 223.442 13.4409 223.442 13.9582V44.0431C223.442 44.5654 223.442 45.075 223.431 45.5888C223.431 46.0562 223.431 46.4845 223.425 46.9252C223.408 47.8181 223.326 48.7086 223.18 49.5896C223.045 50.4249 222.784 51.2345 222.403 51.9902C222.024 52.7268 221.532 53.3991 220.943 53.9822C220.356 54.577 219.677 55.0733 218.932 55.452C218.177 55.8344 217.368 56.1008 216.534 56.2423C215.645 56.3875 214.747 56.4659 213.847 56.4768C213.426 56.4866 212.985 56.4922 212.557 56.4922L210.999 56.4951L12.4421 56.4922Z" fill="black"/>
<path d="M66.6423 44.0882V30.9499H66.5553L61.1745 43.952H59.1207L53.7259 30.9499H53.6402V44.0882H51.1162V26.2373H54.3211L60.0978 40.3273H60.196L65.9615 26.2373H69.1776V44.0882L66.6423 44.0882Z" fill="white"/>
<path d="M71.3105 40.3891C71.3105 38.1135 73.0541 36.7392 76.1481 36.5538L79.7109 36.3559V35.3662C79.7109 33.9189 78.7577 33.1019 77.1364 33.1019C76.5358 33.022 75.9268 33.164 75.4236 33.5013C74.9203 33.8386 74.5575 34.348 74.4032 34.9338H71.9044C71.9788 32.5825 74.1687 30.9133 77.2108 30.9133C80.316 30.9133 82.3698 32.6077 82.3698 35.1683V44.0881H79.8092V41.9473H79.7474C79.3373 42.6732 78.7398 43.2756 78.0172 43.6915C77.2946 44.1074 76.4735 44.3214 75.6399 44.3113C75.0924 44.3649 74.5397 44.3034 74.0174 44.1307C73.495 43.958 73.0146 43.678 72.6069 43.3087C72.1992 42.9393 71.8733 42.4887 71.65 41.9859C71.4268 41.4832 71.3111 40.9392 71.3105 40.3891ZM79.7109 39.2141V38.2118L76.506 38.4097C74.9099 38.5094 74.0073 39.2015 74.0073 40.3147C74.0073 41.4532 74.9478 42.1958 76.3825 42.1958C76.798 42.224 77.215 42.1687 77.6088 42.0332C78.0026 41.8977 78.3653 41.6847 78.6755 41.4069C78.9857 41.129 79.2371 40.7918 79.415 40.4152C79.5928 40.0386 79.6935 39.6302 79.711 39.2141H79.7109Z" fill="white"/>
<path d="M93.5872 35.5517C93.4704 34.8398 93.0901 34.1978 92.5218 33.7534C91.9536 33.3089 91.2389 33.0944 90.5198 33.1526C88.4661 33.1526 87.1058 34.8722 87.1058 37.5816C87.1058 40.3527 88.4787 42.0218 90.5437 42.0218C91.2532 42.0929 91.9631 41.8906 92.5286 41.4563C93.0942 41.022 93.4727 40.3883 93.5872 39.6844H96.1603C96.0002 41.0303 95.3211 42.2605 94.2676 43.1131C93.2142 43.9658 91.8695 44.3736 90.5198 44.2497C86.8082 44.2497 84.3838 41.713 84.3838 37.5816C84.3838 33.5358 86.8082 30.9135 90.4946 30.9135C91.8541 30.7982 93.2049 31.2186 94.2589 32.0851C95.3129 32.9516 95.9866 34.1955 96.1365 35.5517H93.5872Z" fill="white"/>
<path d="M113.52 39.2633H106.715L105.081 44.0882H102.199L108.644 26.2373H111.638L118.083 44.0882H115.152L113.52 39.2633ZM107.42 37.0368H112.813L110.155 29.2064H110.08L107.42 37.0368Z" fill="white"/>
<path d="M132.003 37.5816C132.003 41.626 129.838 44.2244 126.571 44.2244C125.744 44.2677 124.921 44.0771 124.197 43.6744C123.472 43.2717 122.876 42.6732 122.476 41.9474H122.415V48.3937H119.743V31.0735H122.329V33.2382H122.378C122.796 32.5159 123.403 31.9205 124.132 31.5153C124.862 31.1102 125.688 30.9104 126.522 30.9373C129.825 30.9374 132.003 33.5484 132.003 37.5816ZM129.257 37.5816C129.257 34.9466 127.895 33.2143 125.817 33.2143C123.776 33.2143 122.403 34.9831 122.403 37.5816C122.403 40.2039 123.776 41.9601 125.817 41.9601C127.895 41.9601 129.257 40.2404 129.257 37.5816Z" fill="white"/>
<path d="M146.327 37.5816C146.327 41.626 144.162 44.2244 140.896 44.2244C140.068 44.2677 139.245 44.0771 138.521 43.6744C137.797 43.2717 137.201 42.6732 136.801 41.9474H136.739V48.3937H134.067V31.0735H136.653V33.2382H136.702C137.121 32.5159 137.727 31.9205 138.457 31.5153C139.186 31.1102 140.012 30.9104 140.846 30.9373C144.15 30.9374 146.327 33.5484 146.327 37.5816ZM143.581 37.5816C143.581 34.9466 142.219 33.2143 140.142 33.2143C138.101 33.2143 136.728 34.9831 136.728 37.5816C136.728 40.2039 138.101 41.9601 140.142 41.9601C142.219 41.9601 143.581 40.2404 143.581 37.5816H143.581Z" fill="white"/>
<path d="M155.794 39.1145C155.992 40.8847 157.712 42.047 160.062 42.047C162.314 42.047 163.934 40.8847 163.934 39.2885C163.934 37.903 162.956 37.0733 160.643 36.5048L158.33 35.9475C155.052 35.1557 153.53 33.6227 153.53 31.1352C153.53 28.0552 156.214 25.9397 160.025 25.9397C163.797 25.9397 166.383 28.0552 166.47 31.1352H163.773C163.612 29.3538 162.139 28.2785 159.987 28.2785C157.835 28.2785 156.363 29.3664 156.363 30.9499C156.363 32.2119 157.303 32.9545 159.604 33.523L161.571 34.0059C165.233 34.8721 166.755 36.3433 166.755 38.9544C166.755 42.294 164.095 44.3857 159.864 44.3857C155.905 44.3857 153.232 42.3432 153.06 39.1144L155.794 39.1145Z" fill="white"/>
<path d="M172.521 27.9934V31.0734H174.996V33.1889H172.521V40.3638C172.521 41.4784 173.016 41.9978 174.104 41.9978C174.398 41.9927 174.691 41.972 174.983 41.936V44.0389C174.494 44.1303 173.997 44.1717 173.499 44.1624C170.864 44.1624 169.837 43.1727 169.837 40.6487V33.1889H167.944V31.0734H169.837V27.9934H172.521Z" fill="white"/>
<path d="M176.428 37.5814C176.428 33.4865 178.839 30.9133 182.6 30.9133C186.374 30.9133 188.774 33.4865 188.774 37.5814C188.774 41.6876 186.386 44.2495 182.6 44.2495C178.816 44.2495 176.428 41.6876 176.428 37.5814ZM186.052 37.5814C186.052 34.7724 184.765 33.1145 182.6 33.1145C180.436 33.1145 179.148 34.785 179.148 37.5814C179.148 40.4017 180.436 42.0469 182.6 42.0469C184.765 42.0469 186.052 40.4017 186.052 37.5814H186.052Z" fill="white"/>
<path d="M190.978 31.0734H193.525V33.2886H193.587C193.76 32.5967 194.165 31.9853 194.735 31.5571C195.305 31.1289 196.005 30.91 196.718 30.9372C197.026 30.9361 197.333 30.9696 197.633 31.0369V33.5357C197.244 33.4169 196.839 33.3624 196.433 33.3742C196.045 33.3585 195.658 33.4269 195.299 33.5748C194.939 33.7227 194.617 33.9466 194.352 34.231C194.088 34.5155 193.888 34.8538 193.766 35.2228C193.645 35.5918 193.605 35.9826 193.649 36.3685V44.0881H190.978V31.0734Z" fill="white"/>
<path d="M209.949 40.2655C209.59 42.6281 207.289 44.2495 204.345 44.2495C200.559 44.2495 198.209 41.7128 198.209 37.6432C198.209 33.5609 200.572 30.9133 204.233 30.9133C207.833 30.9133 210.098 33.3868 210.098 37.3329V38.2482H200.906V38.4097C200.863 38.8886 200.923 39.3712 201.082 39.8252C201.24 40.2792 201.493 40.6943 201.824 41.043C202.155 41.3917 202.557 41.6659 203.002 41.8474C203.448 42.029 203.926 42.1137 204.407 42.0961C205.038 42.1552 205.672 42.009 206.213 41.6792C206.755 41.3494 207.175 40.8535 207.412 40.2655L209.949 40.2655ZM200.918 36.3812H207.425C207.449 35.9505 207.384 35.5195 207.233 35.1153C207.083 34.711 206.85 34.3423 206.551 34.0321C206.251 33.7219 205.89 33.4771 205.491 33.3129C205.092 33.1487 204.664 33.0687 204.233 33.078C203.798 33.0754 203.366 33.159 202.964 33.3239C202.561 33.4889 202.195 33.7319 201.887 34.039C201.579 34.3461 201.335 34.7112 201.169 35.1132C201.002 35.5152 200.917 35.9461 200.918 36.3812L200.918 36.3812Z" fill="white"/>
<path d="M54.6773 12.8007C55.2374 12.7606 55.7994 12.8452 56.3228 13.0485C56.8462 13.2518 57.318 13.5687 57.7041 13.9764C58.0902 14.3842 58.3809 14.8725 58.5555 15.4062C58.73 15.9399 58.7839 16.5057 58.7133 17.0627C58.7133 19.8029 57.2322 21.3781 54.6773 21.3781H51.5791V12.8007H54.6773ZM52.9113 20.1651H54.5285C54.9287 20.189 55.3292 20.1234 55.7009 19.973C56.0725 19.8226 56.4059 19.5912 56.6769 19.2957C56.9479 19.0002 57.1495 18.648 57.2672 18.2648C57.3849 17.8815 57.4156 17.4768 57.3572 17.0802C57.4114 16.6851 57.3775 16.2829 57.258 15.9025C57.1386 15.522 56.9364 15.1727 56.6661 14.8796C56.3957 14.5864 56.0639 14.3567 55.6943 14.2069C55.3248 14.057 54.9267 13.9908 54.5285 14.0129H52.9113V20.1651Z" fill="white"/>
<path d="M60.2185 18.1388C60.1778 17.7134 60.2265 17.2842 60.3614 16.8788C60.4963 16.4733 60.7145 16.1005 61.0019 15.7843C61.2893 15.468 61.6396 15.2154 62.0304 15.0425C62.4212 14.8696 62.8438 14.7803 63.2711 14.7803C63.6984 14.7803 64.1211 14.8696 64.5118 15.0425C64.9026 15.2154 65.253 15.468 65.5404 15.7843C65.8278 16.1005 66.0459 16.4733 66.1808 16.8788C66.3157 17.2842 66.3644 17.7134 66.3237 18.1388C66.3652 18.5646 66.3171 18.9944 66.1826 19.4006C66.048 19.8067 65.83 20.1802 65.5425 20.497C65.255 20.8139 64.9044 21.0671 64.5132 21.2403C64.1221 21.4136 63.699 21.5031 63.2711 21.5031C62.8433 21.5031 62.4202 21.4136 62.029 21.2403C61.6378 21.0671 61.2872 20.8139 60.9997 20.497C60.7123 20.1802 60.4942 19.8067 60.3597 19.4006C60.2252 18.9944 60.1771 18.5646 60.2185 18.1388ZM65.0097 18.1388C65.0097 16.7357 64.3794 15.9152 63.2732 15.9152C62.1628 15.9152 61.5382 16.7357 61.5382 18.1388C61.5382 19.5532 62.1629 20.3674 63.2732 20.3674C64.3794 20.3674 65.0097 19.5475 65.0097 18.1388H65.0097Z" fill="white"/>
<path d="M74.4392 21.378H73.114L71.7762 16.6107H71.6751L70.3429 21.378H69.0303L67.2461 14.905H68.5418L69.7014 19.8443H69.7968L71.1276 14.905H72.3532L73.684 19.8443H73.785L74.939 14.905H76.2164L74.4392 21.378Z" fill="white"/>
<path d="M77.7168 14.9051H78.9465V15.9334H79.042C79.2039 15.5641 79.4771 15.2545 79.8233 15.0478C80.1696 14.841 80.5717 14.7475 80.9736 14.7802C81.2886 14.7565 81.6048 14.804 81.899 14.9191C82.1931 15.0343 82.4575 15.2141 82.6727 15.4453C82.8878 15.6765 83.0482 15.9532 83.142 16.2548C83.2357 16.5564 83.2603 16.8753 83.2141 17.1877V21.378H81.9367V17.5085C81.9367 16.4683 81.4846 15.951 80.5399 15.951C80.326 15.941 80.1126 15.9774 79.9141 16.0577C79.7156 16.1379 79.5369 16.2601 79.3901 16.4159C79.2433 16.5717 79.1319 16.7574 79.0636 16.9603C78.9953 17.1632 78.9716 17.3784 78.9943 17.5913V21.3781H77.7168L77.7168 14.9051Z" fill="white"/>
<path d="M85.249 12.3782H86.5265V21.378H85.249V12.3782Z" fill="white"/>
<path d="M88.3035 18.1388C88.2628 17.7134 88.3115 17.2842 88.4464 16.8788C88.5813 16.4733 88.7994 16.1005 89.0868 15.7843C89.3742 15.468 89.7246 15.2154 90.1154 15.0425C90.5062 14.8696 90.9288 14.7803 91.3561 14.7803C91.7834 14.7803 92.206 14.8696 92.5968 15.0425C92.9876 15.2154 93.3379 15.468 93.6253 15.7843C93.9128 16.1005 94.1309 16.4733 94.2658 16.8788C94.4007 17.2842 94.4494 17.7134 94.4087 18.1388C94.4501 18.5646 94.4021 18.9944 94.2675 19.4006C94.133 19.8067 93.915 20.1802 93.6275 20.497C93.34 20.8139 92.9894 21.0671 92.5982 21.2403C92.207 21.4136 91.7839 21.5031 91.3561 21.5031C90.9283 21.5031 90.5051 21.4136 90.114 21.2403C89.7228 21.0671 89.3722 20.8139 89.0847 20.497C88.7972 20.1802 88.5792 19.8067 88.4447 19.4006C88.3101 18.9944 88.262 18.5646 88.3035 18.1388ZM93.0947 18.1388C93.0947 16.7357 92.4644 15.9152 91.3582 15.9152C90.2478 15.9152 89.6231 16.7357 89.6231 18.1388C89.6231 19.5532 90.2478 20.3674 91.3582 20.3674C92.4644 20.3674 93.0947 19.5475 93.0947 18.1388H93.0947Z" fill="white"/>
<path d="M95.7529 19.5474C95.7529 18.3822 96.6205 17.7105 98.1605 17.615L99.9138 17.5139V16.9552C99.9138 16.2716 99.4618 15.8855 98.5886 15.8855C97.8755 15.8855 97.3814 16.1473 97.2396 16.605H96.0028C96.1334 15.4932 97.1792 14.78 98.6476 14.78C100.27 14.78 101.186 15.5879 101.186 16.9552V21.3779H99.9559V20.4683H99.8549C99.6497 20.7946 99.3616 21.0606 99.02 21.2391C98.6785 21.4177 98.2956 21.5024 97.9106 21.4846C97.6388 21.5128 97.3642 21.4838 97.1044 21.3995C96.8445 21.3151 96.6052 21.1772 96.4019 20.9947C96.1987 20.8122 96.0359 20.5891 95.9241 20.3398C95.8123 20.0905 95.754 19.8206 95.7529 19.5474ZM99.9138 18.9942V18.4531L98.3331 18.5542C97.4417 18.6138 97.0374 18.917 97.0374 19.4877C97.0374 20.0703 97.5428 20.4093 98.2377 20.4093C98.4413 20.4299 98.647 20.4093 98.8425 20.3488C99.038 20.2883 99.2194 20.1891 99.3757 20.0571C99.5321 19.9251 99.6603 19.7629 99.7528 19.5803C99.8452 19.3978 99.9 19.1984 99.9138 18.9942Z" fill="white"/>
<path d="M102.864 18.1387C102.864 16.0934 103.916 14.7977 105.551 14.7977C105.956 14.779 106.357 14.8759 106.709 15.077C107.06 15.2781 107.347 15.5751 107.536 15.9333H107.632V12.3782H108.909V21.378H107.685V20.3553H107.584C107.38 20.7111 107.083 21.0044 106.725 21.2034C106.367 21.4025 105.961 21.4998 105.551 21.4847C103.904 21.4847 102.864 20.189 102.864 18.1387ZM104.184 18.1387C104.184 19.5117 104.831 20.3378 105.913 20.3378C106.99 20.3378 107.656 19.4997 107.656 18.1443C107.656 16.7953 106.983 15.9453 105.913 15.9453C104.838 15.9453 104.184 16.777 104.184 18.1387H104.184Z" fill="white"/>
<path d="M114.195 18.1387C114.154 17.7133 114.203 17.2841 114.338 16.8786C114.473 16.4731 114.691 16.1003 114.979 15.784C115.266 15.4678 115.616 15.2151 116.007 15.0422C116.398 14.8693 116.821 14.78 117.248 14.78C117.675 14.78 118.098 14.8693 118.489 15.0422C118.88 15.2151 119.23 15.4678 119.517 15.784C119.805 16.1003 120.023 16.4731 120.158 16.8786C120.293 17.2841 120.342 17.7133 120.301 18.1387C120.342 18.5645 120.294 18.9943 120.16 19.4004C120.025 19.8066 119.807 20.1801 119.519 20.4969C119.232 20.8137 118.881 21.0669 118.49 21.2402C118.099 21.4134 117.676 21.5029 117.248 21.5029C116.82 21.5029 116.397 21.4134 116.006 21.2402C115.615 21.0669 115.264 20.8137 114.977 20.4969C114.689 20.1801 114.471 19.8066 114.336 19.4004C114.202 18.9943 114.154 18.5645 114.195 18.1387ZM118.986 18.1387C118.986 16.7356 118.356 15.9151 117.25 15.9151C116.139 15.9151 115.515 16.7356 115.515 18.1387C115.515 19.5531 116.139 20.3673 117.25 20.3673C118.356 20.3672 118.986 19.5474 118.986 18.1387H118.986Z" fill="white"/>
<path d="M122.014 14.9051H123.243V15.9334H123.339C123.501 15.5641 123.774 15.2545 124.12 15.0478C124.466 14.841 124.869 14.7475 125.271 14.7802C125.585 14.7565 125.902 14.804 126.196 14.9191C126.49 15.0343 126.754 15.2141 126.97 15.4453C127.185 15.6765 127.345 15.9532 127.439 16.2548C127.533 16.5564 127.557 16.8753 127.511 17.1877V21.378H126.234V17.5085C126.234 16.4683 125.782 15.951 124.837 15.951C124.623 15.941 124.409 15.9774 124.211 16.0577C124.013 16.1379 123.834 16.2601 123.687 16.4159C123.54 16.5717 123.429 16.7574 123.36 16.9603C123.292 17.1632 123.268 17.3784 123.291 17.5913V21.3781H122.014V14.9051Z" fill="white"/>
<path d="M134.729 13.2935V14.9345H136.132V16.0105H134.729V19.339C134.729 20.017 135.009 20.3139 135.645 20.3139C135.807 20.3134 135.97 20.3035 136.132 20.2844V21.3485C135.902 21.3895 135.67 21.4114 135.437 21.4138C134.016 21.4138 133.45 20.914 133.45 19.666V16.0105H132.423V14.9344H133.45V13.2935H134.729Z" fill="white"/>
<path d="M137.878 12.3782H139.144V15.9453H139.245C139.415 15.5725 139.696 15.2611 140.049 15.0536C140.402 14.8461 140.811 14.7526 141.219 14.7857C141.532 14.7687 141.845 14.821 142.136 14.9389C142.427 15.0568 142.688 15.2375 142.901 15.468C143.114 15.6985 143.273 15.9731 143.368 16.2723C143.463 16.5715 143.49 16.8879 143.448 17.1989V21.378H142.169V17.514C142.169 16.4801 141.688 15.9565 140.785 15.9565C140.566 15.9385 140.345 15.9686 140.138 16.0449C139.932 16.1212 139.744 16.2417 139.589 16.398C139.434 16.5543 139.314 16.7426 139.239 16.9498C139.165 17.157 139.136 17.3781 139.155 17.5975V21.378H137.878L137.878 12.3782Z" fill="white"/>
<path d="M150.897 19.6302C150.723 20.2218 150.347 20.7335 149.834 21.0758C149.322 21.4182 148.705 21.5693 148.092 21.5028C147.665 21.5141 147.242 21.4324 146.85 21.2635C146.458 21.0945 146.108 20.8424 145.823 20.5245C145.539 20.2066 145.327 19.8306 145.202 19.4226C145.078 19.0146 145.044 18.5844 145.102 18.1618C145.045 17.7379 145.08 17.3067 145.204 16.8975C145.329 16.4883 145.539 16.1106 145.822 15.7899C146.105 15.4692 146.454 15.2131 146.845 15.0389C147.235 14.8647 147.659 14.7764 148.086 14.78C149.887 14.78 150.974 16.0105 150.974 18.0431V18.4889H146.403V18.5605C146.383 18.798 146.413 19.0371 146.491 19.2625C146.569 19.4878 146.693 19.6944 146.855 19.869C147.017 20.0435 147.214 20.1823 147.433 20.2763C147.652 20.3703 147.889 20.4175 148.127 20.4149C148.433 20.4515 148.742 20.3965 149.016 20.2568C149.291 20.117 149.517 19.8989 149.667 19.6301L150.897 19.6302ZM146.403 17.5441H149.673C149.689 17.3269 149.659 17.1087 149.586 16.9035C149.513 16.6983 149.397 16.5108 149.247 16.3529C149.097 16.1949 148.916 16.0702 148.715 15.9865C148.513 15.9029 148.297 15.8623 148.079 15.8673C147.858 15.8645 147.639 15.906 147.434 15.9893C147.23 16.0726 147.044 16.196 146.888 16.3523C146.731 16.5085 146.608 16.6945 146.525 16.8992C146.442 17.1039 146.4 17.3232 146.403 17.5441H146.403Z" fill="white"/>
<path d="M35.9079 29.4321C35.9233 28.2323 36.242 27.0558 36.8343 26.0123C37.4266 24.9687 38.2732 24.0919 39.2954 23.4635C38.646 22.5361 37.7894 21.7729 36.7934 21.2344C35.7975 20.696 34.6897 20.3972 33.5581 20.3618C31.1442 20.1085 28.804 21.8063 27.5739 21.8063C26.3201 21.8063 24.4262 20.387 22.3867 20.429C21.0676 20.4716 19.782 20.8552 18.6551 21.5424C17.5283 22.2296 16.5987 23.197 15.9569 24.3503C13.1768 29.1636 15.2505 36.2376 17.9136 40.1284C19.2461 42.0336 20.8033 44.1617 22.8409 44.0863C24.8348 44.0036 25.5794 42.8148 27.9862 42.8148C30.3707 42.8148 31.0694 44.0863 33.1483 44.0383C35.2878 44.0035 36.6359 42.1246 37.9215 40.2014C38.8789 38.8439 39.6155 37.3435 40.1043 35.7559C38.8612 35.2302 37.8005 34.3502 37.0542 33.2256C36.308 32.1011 35.9093 30.7817 35.9079 29.4321Z" fill="white"/>
<path d="M31.9814 17.803C33.1479 16.4026 33.7227 14.6026 33.5835 12.7853C31.8012 12.9725 30.1549 13.8243 28.9726 15.171C28.3945 15.8289 27.9518 16.5942 27.6697 17.4233C27.3876 18.2525 27.2716 19.129 27.3285 20.003C28.22 20.0121 29.1019 19.8189 29.9078 19.4379C30.7138 19.0568 31.4228 18.4978 31.9814 17.803Z" fill="white"/>
</g>
<defs>
<clipPath id="clip0_6378_3618">
<rect width="224.395" height="57.5" fill="white" transform="translate(0.302734 0.25)"/>
</clipPath>
</defs>
</svg>
