<svg width="75" height="75" viewBox="0 0 75 75" fill="none" xmlns="http://www.w3.org/2000/svg">
<rect x="6" y="6.01562" width="63" height="63" rx="31.5" fill="#FDEDE1"/>
<path fillRule="evenodd" clipRule="evenodd" d="M35.2031 25.7031C35.2031 25.1595 35.6438 24.7188 36.1875 24.7188H42.75C43.2937 24.7188 43.7344 25.1595 43.7344 25.7031V49.3281C43.7344 49.8718 43.2937 50.3125 42.75 50.3125H36.1875C35.6438 50.3125 35.2031 49.8718 35.2031 49.3281V25.7031ZM37.1719 26.6875V48.3438H41.7656V26.6875H37.1719Z" fill="#F78633"/>
<path fillRule="evenodd" clipRule="evenodd" d="M41.7656 25.7031C41.7656 25.1595 42.2063 24.7188 42.75 24.7188H49.3125C49.8562 24.7188 50.2969 25.1595 50.2969 25.7031V49.3281C50.2969 49.8718 49.8562 50.3125 49.3125 50.3125H42.75C42.2063 50.3125 41.7656 49.8718 41.7656 49.3281V25.7031ZM43.7344 26.6875V48.3438H48.3281V26.6875H43.7344Z" fill="#F78633"/>
<path fillRule="evenodd" clipRule="evenodd" d="M27.7041 24.9293C27.9108 24.7668 28.1738 24.6937 28.4347 24.7264L33.6847 25.3826C34.2148 25.4489 34.5952 25.9258 34.5421 26.4573L32.2452 49.4261C32.2189 49.6888 32.0882 49.93 31.8824 50.0954C31.6766 50.2608 31.4129 50.3366 31.1507 50.3058L25.5726 49.6495C25.0339 49.5861 24.648 49.099 24.7096 48.5601L27.3346 25.5914C27.3644 25.3302 27.4975 25.0918 27.7041 24.9293ZM29.1776 26.8033L26.777 47.8089L30.3859 48.2335L32.4875 27.217L29.1776 26.8033Z" fill="#F78633"/>
<path fillRule="evenodd" clipRule="evenodd" d="M46.0312 30.625C46.5749 30.625 47.0156 31.0657 47.0156 31.6094V33.5781C47.0156 34.1218 46.5749 34.5625 46.0312 34.5625C45.4876 34.5625 45.0469 34.1218 45.0469 33.5781V31.6094C45.0469 31.0657 45.4876 30.625 46.0312 30.625Z" fill="#F78633"/>
<path fillRule="evenodd" clipRule="evenodd" d="M39.4688 30.625C40.0124 30.625 40.4531 31.0657 40.4531 31.6094V33.5781C40.4531 34.1218 40.0124 34.5625 39.4688 34.5625C38.9251 34.5625 38.4844 34.1218 38.4844 33.5781V31.6094C38.4844 31.0657 38.9251 30.625 39.4688 30.625Z" fill="#F78633"/>
<rect x="6" y="6.01562" width="63" height="63" rx="31.5" stroke="#FEF6F0" strokeWidth="10.5"/>
</svg>
