<svg width="192" height="192" viewBox="0 0 192 192" fill="none" xmlns="http://www.w3.org/2000/svg">
<path d="M147.056 22.2241C110.357 22.2241 85.1556 3.11475 67.4722 3.11475C49.7888 3.11475 12.6499 13.3334 12.6499 95.1094C12.6499 176.885 62.6123 188.885 82.0625 188.885C173.143 188.891 212.049 22.2241 147.056 22.2241Z" fill="#FDEDE1"/>
<path d="M147.066 49.3333H152.371V59.9999H147.066V49.3333ZM159.003 65.3333H169.615V70.6666H159.003V65.3333Z" fill="#A4AFC1"/>
<path d="M77.4306 140C77.4306 140 118.549 132 118.549 84.9547V52L77.4306 36L36.3125 52V84.9547C36.3125 132 77.4306 140 77.4306 140Z" fill="#FDEDE1"/>
<path d="M150.382 156H121.202C119.794 156 118.445 155.438 117.45 154.438C116.455 153.438 115.896 152.081 115.896 150.667V132C115.896 130.586 116.455 129.229 117.45 128.229C118.445 127.229 119.794 126.667 121.202 126.667H150.382C151.789 126.667 153.139 127.229 154.134 128.229C155.129 129.229 155.688 130.586 155.688 132V150.667C155.688 152.081 155.129 153.438 154.134 154.438C153.139 155.438 151.789 156 150.382 156Z" fill="#F78633"/>
<path d="M127.833 150.667V132C127.833 130.586 128.392 129.229 129.387 128.229C130.382 127.229 131.732 126.667 133.139 126.667H121.202C119.794 126.667 118.445 127.229 117.45 128.229C116.455 129.229 115.896 130.586 115.896 132V150.667C115.896 152.081 116.455 153.438 117.45 154.438C118.445 155.438 119.794 156 121.202 156H133.139C131.732 156 130.382 155.438 129.387 154.438C128.392 153.438 127.833 152.081 127.833 150.667Z" fill="#F78633"/>
<path d="M48.25 84.9547V52L83.3993 38.32L77.4306 36L36.3125 52V84.9547C36.3125 132 77.4306 140 77.4306 140C77.4306 140 79.8181 139.515 83.3993 138.176C72.0136 133.915 48.25 120.747 48.25 84.9547Z" fill="#D5DBE1"/>
<path d="M150.382 160H121.201C116.081 160 111.917 155.813 111.917 150.667V132C111.917 126.853 116.081 122.667 121.201 122.667H150.382C155.502 122.667 159.667 126.853 159.667 132V150.667C159.667 155.813 155.502 160 150.382 160ZM121.201 130.667C120.849 130.667 120.512 130.807 120.263 131.057C120.015 131.307 119.875 131.646 119.875 132V150.667C119.875 151.403 120.469 152 121.201 152H150.382C150.734 152 151.071 151.86 151.32 151.61C151.568 151.36 151.708 151.02 151.708 150.667V132C151.708 131.646 151.568 131.307 151.32 131.057C151.071 130.807 150.734 130.667 150.382 130.667H121.201Z" fill="#1D2939"/>
<path d="M145.076 130.667H126.507C125.452 130.667 124.44 130.245 123.693 129.495C122.947 128.745 122.528 127.727 122.528 126.667V114.667C122.528 107.317 128.475 101.333 135.792 101.333C143.108 101.333 149.056 107.317 149.056 114.667V126.667C149.056 127.727 148.636 128.745 147.89 129.495C147.144 130.245 146.132 130.667 145.076 130.667ZM130.486 122.667H141.097V114.667C141.036 113.293 140.45 111.997 139.462 111.047C138.474 110.097 137.159 109.566 135.792 109.566C134.424 109.566 133.11 110.097 132.121 111.047C131.133 111.997 130.547 113.293 130.486 114.667V122.667Z" fill="#1D2939"/>
<path d="M150.382 160H121.201C116.081 160 111.917 155.813 111.917 150.667V132C111.917 126.853 116.081 122.667 121.201 122.667H150.382C155.502 122.667 159.667 126.853 159.667 132V150.667C159.667 155.813 155.502 160 150.382 160ZM121.201 130.667C120.849 130.667 120.512 130.807 120.263 131.057C120.015 131.307 119.875 131.646 119.875 132V150.667C119.875 151.403 120.469 152 121.201 152H150.382C150.734 152 151.071 151.86 151.32 151.61C151.568 151.36 151.708 151.02 151.708 150.667V132C151.708 131.646 151.568 131.307 151.32 131.057C151.071 130.807 150.734 130.667 150.382 130.667H121.201Z" fill="#1D2939"/>
<path d="M149.056 126.667H141.097V114.667C141.036 113.293 140.451 111.997 139.462 111.047C138.474 110.097 137.159 109.567 135.792 109.567C134.424 109.567 133.11 110.097 132.121 111.047C131.133 111.997 130.547 113.293 130.486 114.667V126.667H122.528V114.667C122.528 107.317 128.475 101.333 135.792 101.333C143.108 101.333 149.056 107.317 149.056 114.667V126.667ZM77.4307 144C77.1759 144.002 76.9216 143.977 76.672 143.925C76.2264 143.84 32.3335 134.725 32.3335 84.96V52C32.3335 50.3466 33.3416 48.8693 34.8749 48.272L75.9929 32.272C76.9166 31.9145 77.9395 31.9145 78.8632 32.272L119.981 48.272C121.52 48.8693 122.528 50.3466 122.528 52V84.96C122.528 87.9946 122.363 90.8426 122.019 93.6533L114.124 92.688C114.426 90.1973 114.57 87.6693 114.57 84.9546V54.7306L77.4307 40.2826L40.2918 54.7306V84.9546C40.2918 125.248 71.8493 134.565 77.4042 135.893C83.7709 134.183 89.7596 131.281 95.0558 127.339L99.8042 133.76C89.1189 141.733 78.6245 143.835 78.1841 143.915C77.9376 143.975 77.6844 144.004 77.4307 144Z" fill="#1D2939"/>
</svg>
