<svg width="75" height="75" viewBox="0 0 75 75" fill="none" xmlns="http://www.w3.org/2000/svg">
<rect x="6" y="6.01562" width="63" height="63" rx="31.5" fill="#FDEDE1"/>
<path d="M29.625 29.6406H29.6381M29.625 45.3906H29.6381M27 24.3906H48C49.4497 24.3906 50.625 25.5659 50.625 27.0156V32.2656C50.625 33.7154 49.4497 34.8906 48 34.8906H27C25.5503 34.8906 24.375 33.7154 24.375 32.2656V27.0156C24.375 25.5659 25.5503 24.3906 27 24.3906ZM27 40.1406H48C49.4497 40.1406 50.625 41.3159 50.625 42.7656V48.0156C50.625 49.4654 49.4497 50.6406 48 50.6406H27C25.5503 50.6406 24.375 49.4654 24.375 48.0156V42.7656C24.375 41.3159 25.5503 40.1406 27 40.1406Z" stroke="#F78E41" strokeWidth="2.625" strokeLinecap="round" strokeLinejoin="round"/>
<rect x="6" y="6.01562" width="63" height="63" rx="31.5" stroke="#FEF6F0" strokeWidth="10.5"/>
</svg>
