<svg width="192" height="192" viewBox="0 0 192 192" fill="none" xmlns="http://www.w3.org/2000/svg">
<path d="M145.962 20.8747C109.275 21.5627 83.7177 2.92801 66.0396 3.26401C48.3615 3.60001 11.4136 14.512 12.9363 96.2773C14.459 178.043 64.6336 189.099 84.0838 188.736C175.143 187.024 210.945 19.6533 145.962 20.8747Z" fill="#FDEDE1"/>
<path d="M130.486 86.6667H61.5139C54.8361 86.647 48.4374 83.9716 43.7155 79.2249C38.9935 74.4783 36.3321 68.0461 36.3125 61.3333C36.3321 54.6206 38.9935 48.1884 43.7155 43.4417C48.4374 38.6951 54.8361 36.0197 61.5139 36H130.486C137.164 36.0197 143.563 38.6951 148.285 43.4417C153.006 48.1884 155.668 54.6206 155.687 61.3333C155.669 68.0465 153.008 74.4795 148.286 79.2265C143.564 83.9734 137.164 86.6484 130.486 86.6667Z" fill="#FDEDE1"/>
<path d="M61.5137 70.6667C66.6415 70.6667 70.7984 66.488 70.7984 61.3333C70.7984 56.1787 66.6415 52 61.5137 52C56.3859 52 52.229 56.1787 52.229 61.3333C52.229 66.488 56.3859 70.6667 61.5137 70.6667Z" fill="#F78633"/>
<path d="M61.5139 156H130.486C137.164 155.98 143.563 153.305 148.285 148.558C153.006 143.812 155.668 137.379 155.687 130.667C155.668 123.954 153.006 117.522 148.285 112.775C143.563 108.028 137.164 105.353 130.486 105.333H61.5139C54.8361 105.353 48.4374 108.028 43.7155 112.775C38.9935 117.522 36.3321 123.954 36.3125 130.667C36.3307 137.38 38.9917 143.813 43.7139 148.56C48.4362 153.307 54.8357 155.982 61.5139 156Z" fill="#FDEDE1"/>
<path d="M48.25 61.3333C48.2696 54.6206 50.931 48.1884 55.653 43.4417C60.3749 38.6951 66.7736 36.0197 73.4514 36H61.5139C47.6505 36 36.3125 47.4027 36.3125 61.3333C36.3125 75.264 47.6505 86.6667 61.5139 86.6667H73.4514C66.7736 86.647 60.3749 83.9716 55.653 79.2249C50.931 74.4783 48.2696 68.0461 48.25 61.3333ZM48.25 130.667C48.2696 123.954 50.931 117.522 55.653 112.775C60.3749 108.028 66.7736 105.353 73.4514 105.333H61.5139C47.6505 105.333 36.3125 116.736 36.3125 130.667C36.3125 144.597 47.6505 156 61.5139 156H73.4514C66.7736 155.98 60.3749 153.305 55.653 148.558C50.931 143.812 48.2696 137.379 48.25 130.667Z" fill="#D5DBE1"/>
<path d="M130.486 140C135.614 140 139.771 135.821 139.771 130.667C139.771 125.512 135.614 121.333 130.486 121.333C125.358 121.333 121.201 125.512 121.201 130.667C121.201 135.821 125.358 140 130.486 140Z" fill="#F78633"/>
<path d="M151.708 17.3334H157.014V28H151.708V17.3334ZM163.646 34.6667H174.257V40H163.646V34.6667ZM27.0277 98.6667C22.64 98.6667 19.0693 95.0774 19.0693 90.6667C19.0693 86.256 22.64 82.6667 27.0277 82.6667C31.4154 82.6667 34.986 86.256 34.986 90.6667C34.986 95.0774 31.4154 98.6667 27.0277 98.6667ZM27.0277 88C26.3227 88.0015 25.6472 88.2843 25.1497 88.7864C24.6522 89.2885 24.3735 89.9687 24.3749 90.6774C24.3763 91.386 24.6577 92.0651 25.1572 92.5652C25.6567 93.0653 26.3333 93.3455 27.0383 93.344C27.7432 93.3426 28.4188 93.0598 28.9163 92.5577C29.4138 92.0556 29.6925 91.3754 29.6911 90.6667C29.6896 89.9581 29.4083 89.279 28.9088 88.7789C28.4093 88.2788 27.7326 87.9986 27.0277 88Z" fill="#A4AFC1"/>
<path d="M130.486 90.6667H61.5141C45.4223 90.6667 32.3335 77.504 32.3335 61.3333C32.3335 45.1627 45.4223 32 61.5141 32H130.486C146.578 32 159.667 45.1627 159.667 61.3333C159.667 77.504 146.578 90.6667 130.486 90.6667ZM61.5141 40C49.81 40 40.2918 49.568 40.2918 61.3333C40.2918 73.0987 49.81 82.6667 61.5141 82.6667H130.486C142.19 82.6667 151.709 73.0987 151.709 61.3333C151.709 49.568 142.19 40 130.486 40H61.5141Z" fill="#1D2939"/>
<path d="M61.5141 74.6667C54.203 74.6667 48.2502 68.688 48.2502 61.3333C48.2502 53.9787 54.203 48 61.5141 48C68.8251 48 74.7779 53.9787 74.7779 61.3333C74.7779 68.688 68.8251 74.6667 61.5141 74.6667ZM61.5141 56C60.148 56.0614 58.8581 56.6502 57.913 57.6436C56.968 58.6371 56.4405 59.9587 56.4405 61.3333C56.4405 62.7079 56.968 64.0296 57.913 65.023C58.8581 66.0165 60.148 66.6052 61.5141 66.6667C62.8801 66.6052 64.17 66.0165 65.1151 65.023C66.0601 64.0296 66.5876 62.7079 66.5876 61.3333C66.5876 59.9587 66.0601 58.6371 65.1151 57.6436C64.17 56.6502 62.8801 56.0614 61.5141 56ZM130.486 160H61.5141C45.4223 160 32.3335 146.837 32.3335 130.667C32.3335 114.496 45.4223 101.333 61.5141 101.333H130.486C146.578 101.333 159.667 114.496 159.667 130.667C159.667 146.837 146.578 160 130.486 160ZM61.5141 109.333C49.81 109.333 40.2918 118.901 40.2918 130.667C40.2918 142.432 49.81 152 61.5141 152H130.486C142.19 152 151.709 142.432 151.709 130.667C151.709 118.901 142.19 109.333 130.486 109.333H61.5141Z" fill="#1D2939"/>
<path d="M130.486 144C123.175 144 117.222 138.021 117.222 130.667C117.222 123.312 123.175 117.333 130.486 117.333C137.797 117.333 143.75 123.312 143.75 130.667C143.75 138.021 137.797 144 130.486 144ZM130.486 125.333C129.12 125.395 127.83 125.984 126.885 126.977C125.94 127.97 125.413 129.292 125.413 130.667C125.413 132.041 125.94 133.363 126.885 134.356C127.83 135.35 129.12 135.939 130.486 136C131.852 135.939 133.142 135.35 134.087 134.356C135.032 133.363 135.56 132.041 135.56 130.667C135.56 129.292 135.032 127.97 134.087 126.977C133.142 125.984 131.852 125.395 130.486 125.333Z" fill="#1D2939"/>
</svg>
