<svg width="75" height="75" viewBox="0 0 75 75" fill="none" xmlns="http://www.w3.org/2000/svg">
<rect x="6" y="6.01562" width="63" height="63" rx="31.5" fill="#FDEDE1"/>
<path fillRule="evenodd" clipRule="evenodd" d="M42.5604 34.4182L41.6327 34.0891L41.2714 33.1734C41.6304 33.0318 42.039 33.1129 42.3165 33.381C42.5941 33.649 42.6895 34.0546 42.5604 34.4182ZM34.1109 41.8782C32.6769 40.4935 32.6371 38.2085 34.0218 36.7745C34.231 36.5579 34.5135 36.3573 34.7883 36.1829C35.0767 36 35.4151 35.8098 35.7755 35.6205C36.4971 35.2414 37.3504 34.843 38.1587 34.4833C38.9695 34.1225 39.7468 33.7954 40.3205 33.5588C40.6077 33.4404 40.8446 33.3444 41.01 33.2778C41.0927 33.2446 41.1576 33.2186 41.2021 33.2009L41.2531 33.1807L41.2714 33.1734C41.2715 33.1734 41.2714 33.1734 41.6327 34.0891C42.5604 34.4182 42.5605 34.4181 42.5604 34.4182L42.5538 34.4368L42.5354 34.4885C42.5192 34.5335 42.4956 34.5993 42.4652 34.6831C42.4045 34.8508 42.3168 35.0908 42.2085 35.382C41.992 35.9636 41.6923 36.7519 41.36 37.5747C41.0287 38.3951 40.6603 39.2618 40.3067 39.9961C40.13 40.3629 39.9518 40.7078 39.7791 41.0023C39.6144 41.283 39.4238 41.5724 39.2146 41.789C37.8299 43.223 35.5449 43.2629 34.1109 41.8782ZM39.92 35.8627C39.613 35.9942 39.2887 36.1354 38.9592 36.282C38.1677 36.6342 37.3583 37.0129 36.6911 37.3634C36.3572 37.5388 36.0698 37.7015 35.843 37.8454C35.6026 37.9979 35.4805 38.0981 35.438 38.1421C34.8086 38.7939 34.8267 39.8325 35.4785 40.462C36.1303 41.0914 37.1689 41.0733 37.7984 40.4215C37.8409 40.3774 37.9368 40.2519 38.0808 40.0064C38.2167 39.7747 38.3693 39.4818 38.5329 39.1419C38.8599 38.463 39.2101 37.6408 39.5345 36.8375C39.6695 36.5031 39.7992 36.1741 39.92 35.8627Z" fill="#F78E41"/>
<path fillRule="evenodd" clipRule="evenodd" d="M22.7344 37.5156C22.7344 29.3608 29.3452 22.75 37.5 22.75C45.6548 22.75 52.2656 29.3608 52.2656 37.5156C52.2656 41.5928 50.6119 45.2855 47.9408 47.9565C47.5564 48.3409 46.9331 48.3409 46.5487 47.9565C46.1643 47.572 46.1643 46.9488 46.5487 46.5643C48.8656 44.2475 50.2969 41.0497 50.2969 37.5156C50.2969 30.4481 44.5675 24.7188 37.5 24.7188C30.4325 24.7188 24.7031 30.4481 24.7031 37.5156C24.7031 41.0497 26.1344 44.2475 28.4512 46.5644C28.8357 46.9488 28.8357 47.572 28.4512 47.9565C28.0668 48.3409 27.4436 48.3409 27.0591 47.9565C24.3882 45.2855 22.7344 41.5928 22.7344 37.5156Z" fill="#F78E41"/>
<path fillRule="evenodd" clipRule="evenodd" d="M37.5 23.4062C38.0437 23.4062 38.4844 23.847 38.4844 24.3906V27.0156C38.4844 27.5593 38.0437 28 37.5 28C36.9563 28 36.5156 27.5593 36.5156 27.0156V24.3906C36.5156 23.847 36.9563 23.4062 37.5 23.4062Z" fill="#F78E41"/>
<path fillRule="evenodd" clipRule="evenodd" d="M48.007 28.4582C48.3492 28.8807 48.284 29.5005 47.8615 29.8427L45.8215 31.4946C45.399 31.8367 44.7791 31.7715 44.437 31.349C44.0949 30.9265 44.16 30.3067 44.5825 29.9646L46.6225 28.3126C47.045 27.9705 47.6649 28.0357 48.007 28.4582Z" fill="#F78E41"/>
<path fillRule="evenodd" clipRule="evenodd" d="M46.1387 38.8252C46.261 38.2955 46.7896 37.9652 47.3193 38.0875L49.877 38.678C50.4067 38.8003 50.737 39.3289 50.6147 39.8586C50.4924 40.3883 49.9638 40.7186 49.4341 40.5963L46.8764 40.0058C46.3467 39.8835 46.0164 39.3549 46.1387 38.8252Z" fill="#F78E41"/>
<path fillRule="evenodd" clipRule="evenodd" d="M28.8617 38.8252C28.984 39.3549 28.6537 39.8835 28.124 40.0058L25.5663 40.5963C25.0366 40.7186 24.508 40.3883 24.3857 39.8586C24.2634 39.3288 24.5937 38.8003 25.1234 38.678L27.6811 38.0875C28.2109 37.9652 28.7394 38.2955 28.8617 38.8252Z" fill="#F78E41"/>
<path fillRule="evenodd" clipRule="evenodd" d="M26.9925 28.4582C27.3347 28.0357 27.9545 27.9705 28.377 28.3126L30.417 29.9646C30.8395 30.3067 30.9047 30.9265 30.5626 31.349C30.2204 31.7715 29.6006 31.8367 29.1781 31.4946L27.1381 29.8427C26.7156 29.5005 26.6504 28.8807 26.9925 28.4582Z" fill="#F78E41"/>
<rect x="6" y="6.01562" width="63" height="63" rx="31.5" stroke="#FEF6F0" strokeWidth="10.5"/>
</svg>
