<svg width="192" height="192" viewBox="0 0 192 192" fill="none" xmlns="http://www.w3.org/2000/svg">
<path d="M44.9446 169.776C81.6431 169.776 106.845 188.885 124.528 188.885C142.211 188.885 179.35 178.667 179.35 96.8907C179.35 15.1147 129.388 3.10938 109.938 3.10938C18.8572 3.10938 -20.0485 169.776 44.9446 169.776Z" fill="#FDEDE1"/>
<path d="M132.646 35.2747L136.397 31.504L143.899 39.0453L140.148 42.816L132.646 35.2747ZM154.213 56.96L157.964 53.1893L165.466 60.7307L161.715 64.5067L154.213 56.96ZM153.274 39.04L160.781 31.4987L164.532 35.2693L157.025 42.816L153.274 39.04Z" fill="#A4AFC1"/>
<path d="M44.2708 134.667C42.1602 134.667 40.1359 133.824 38.6434 132.324C37.151 130.823 36.3125 128.788 36.3125 126.667V81.3334C36.3125 79.2116 37.151 77.1768 38.6434 75.6765C40.1359 74.1762 42.1602 73.3334 44.2708 73.3334H105.285C107.395 73.3334 109.42 74.1762 110.912 75.6765C112.405 77.1768 113.243 79.2116 113.243 81.3334V126.667C113.243 128.788 112.405 130.823 110.912 132.324C109.42 133.824 107.395 134.667 105.285 134.667H44.2708Z" fill="#FDEDE1"/>
<path d="M125.181 156C142.029 156 155.688 142.27 155.688 125.333C155.688 108.397 142.029 94.6666 125.181 94.6666C108.332 94.6666 94.6738 108.397 94.6738 125.333C94.6738 142.27 108.332 156 125.181 156Z" fill="#F89F5E"/>
<path d="M106.611 125.333C106.612 118.242 109.058 111.371 113.532 105.888C118.006 100.406 124.231 96.6513 131.149 95.264C126.723 94.3727 122.155 94.48 117.775 95.5782C113.394 96.6764 109.311 98.7381 105.82 101.615C102.328 104.491 99.5153 108.111 97.5838 112.212C95.6523 116.314 94.6504 120.795 94.6504 125.333C94.6504 129.871 95.6523 134.353 97.5838 138.454C99.5153 142.556 102.328 146.176 105.82 149.052C109.311 151.929 113.394 153.99 117.775 155.088C122.155 156.187 126.723 156.294 131.149 155.403C124.231 154.015 118.006 150.261 113.532 144.778C109.058 139.296 106.612 132.424 106.611 125.333Z" fill="#F89F5E"/>
<path d="M48.25 126.667V81.3334C48.25 79.2116 49.0885 77.1768 50.5809 75.6765C52.0734 74.1762 54.0977 73.3334 56.2083 73.3334H44.2708C42.1602 73.3334 40.1359 74.1762 38.6434 75.6765C37.151 77.1768 36.3125 79.2116 36.3125 81.3334V126.667C36.3125 128.788 37.151 130.823 38.6434 132.324C40.1359 133.824 42.1602 134.667 44.2708 134.667H56.2083C54.0977 134.667 52.0734 133.824 50.5809 132.324C49.0885 130.823 48.25 128.788 48.25 126.667Z" fill="#D5DBE1"/>
<path d="M125.18 160C106.165 160 90.6943 144.448 90.6943 125.333C90.6943 106.219 106.165 90.6666 125.18 90.6666C144.196 90.6666 159.667 106.219 159.667 125.333C159.667 144.448 144.196 160 125.18 160ZM125.18 98.6666C110.553 98.6666 98.6527 110.629 98.6527 125.333C98.6527 140.037 110.553 152 125.18 152C139.808 152 151.708 140.037 151.708 125.333C151.708 110.629 139.808 98.6666 125.18 98.6666Z" fill="#1D2939"/>
<path d="M111.917 96.1067H119.875V154.565H111.917V96.1067ZM130.486 96.1067H138.444V154.565H130.486V96.1067Z" fill="#1D2939"/>
<path d="M96.1063 112H125.181H154.255V120H96.1063V112ZM96.1063 130.667H154.255V138.667H96.1063V130.667ZM80.0835 138.667H44.271C41.1063 138.662 38.0724 137.397 35.8346 135.147C33.5968 132.898 32.3377 129.848 32.3335 126.667V81.3333C32.3335 74.72 37.6868 69.3333 44.271 69.3333H105.285C106.967 69.3293 108.631 69.6875 110.163 70.3839C111.696 71.0804 113.063 72.0988 114.172 73.3706L108.171 78.6293C107.81 78.2187 107.365 77.8906 106.868 77.6671C106.37 77.4436 105.83 77.3297 105.285 77.3333H44.271C43.2157 77.3333 42.2035 77.7547 41.4573 78.5049C40.7111 79.255 40.2918 80.2724 40.2918 81.3333V126.667C40.2918 128.869 42.0745 130.667 44.271 130.667H80.0835V138.667Z" fill="#1D2939"/>
<path d="M101.306 73.3333H93.3472V58.6667C93.3472 48.3733 85.0175 40 74.7778 40C64.5381 40 56.2083 48.3733 56.2083 58.6667V73.3333H48.25V58.6667C48.25 43.9627 60.1504 32 74.7778 32C89.4052 32 101.306 43.9627 101.306 58.6667V73.3333Z" fill="#1D2939"/>
</svg>
