<svg width="44" height="44" viewBox="0 0 44 44" fill="none" xmlns="http://www.w3.org/2000/svg">
<path d="M0.290039 11.2738V18.6608C0.290039 20.3176 1.63319 21.6608 3.29004 21.6608H18.0509C19.7078 21.6608 21.0509 20.3176 21.0509 18.6608V3.8999C21.0509 2.24305 19.7078 0.899902 18.0509 0.899902H3.29004C1.63318 0.899902 0.290039 2.24305 0.290039 3.8999V11.2738ZM22.5292 11.2738V18.6608C22.5292 20.3176 23.8723 21.6608 25.5292 21.6608H40.29C41.9469 21.6608 43.29 20.3176 43.29 18.6608V3.8999C43.29 2.24305 41.9469 0.899902 40.29 0.899902H25.5292C23.8723 0.899902 22.5292 2.24305 22.5292 3.8999V11.2738ZM0.290039 33.526V40.8999C0.290039 42.5568 1.63319 43.8999 3.29004 43.8999H18.0509C19.7078 43.8999 21.0509 42.5568 21.0509 40.8999V26.139C21.0509 24.4822 19.7078 23.139 18.0509 23.139H3.29004C1.63318 23.139 0.290039 24.4822 0.290039 26.139V33.526ZM22.5292 33.526V40.8999C22.5292 42.5568 23.8723 43.8999 25.5292 43.8999H40.29C41.9469 43.8999 43.29 42.5568 43.29 40.8999V26.139C43.29 24.4822 41.9469 23.139 40.29 23.139H25.5292C23.8723 23.139 22.5292 24.4822 22.5292 26.139V33.526Z" fill="#F89F5E"/>
</svg>
